<?xml version="1.0" encoding="UTF-8"?>
<!-- Generator: Adobe Illustrator 16.0.3, SVG Export Plug-In . SVG Version: 6.00 Build 0)  -->
<!DOCTYPE svg PUBLIC "-//W3C//DTD SVG 1.1//EN" "http://www.w3.org/Graphics/SVG/1.1/DTD/svg11.dtd">
<svg version="1.1" id="Layer_1" xmlns="http://www.w3.org/2000/svg" xmlns:xlink="http://www.w3.org/1999/xlink" x="0px" y="0px" width="410.161px" height="174.332px" viewBox="0 0 410.161 174.332" enable-background="new 0 0 410.161 174.332" xml:space="preserve">
<g>
	<path fill-rule="evenodd" clip-rule="evenodd" fill="#FF9900" d="M25.247,88.106c-0.342,1.37-4.834,1.435-10.034,0.145   s-9.139-3.446-8.798-4.817c0.341-1.37,4.834-1.435,10.034-0.144C21.649,84.58,25.587,86.736,25.247,88.106z"/>
	
		<ellipse transform="matrix(0.7553 0.6554 -0.6554 0.7553 51.2486 1.5524)" fill-rule="evenodd" clip-rule="evenodd" fill="#FF9900" cx="23.545" cy="69.403" rx="13.335" ry="3.514"/>
	<g>
		<path fill="#FF9900" d="M60.459,70.313c-3.898-0.406-5.805-12.728-4.258-27.521C57.749,28,62.163,16.337,66.061,16.743    c3.898,0.406,5.805,12.727,4.258,27.52C68.771,59.056,64.357,70.719,60.459,70.313z"/>
		<path fill="#FF9900" d="M63.26,43.528"/>
	</g>
	<path fill-rule="evenodd" clip-rule="evenodd" fill="#FF9900" d="M84.738,72.534c-4.93-3.197,0.925-20.958,13.077-39.671   c12.152-18.713,26-31.292,30.93-28.095c4.93,3.197-0.925,20.958-13.077,39.671C103.516,63.153,89.668,75.731,84.738,72.534z"/>
	
		<ellipse transform="matrix(0.3588 0.9334 -0.9334 0.3588 76.3342 -1.6608)" fill-rule="evenodd" clip-rule="evenodd" fill="#FF9900" cx="39.376" cy="54.732" rx="17.926" ry="4.723"/>
	<path fill-rule="evenodd" clip-rule="evenodd" fill="#808080" d="M76.466,116.665c-0.024-1.249-0.193-2.326-0.491-3.219   c-0.272-0.971-0.801-1.775-1.573-2.394c-0.78-0.662-1.873-1.18-3.284-1.512c-1.409-0.371-3.224-0.566-5.446-0.566   c-3.122,0-6.402,0.403-9.236,1.787l-0.571-5.791c0.196-0.096,0.362-0.189,0.567-0.249l0.28-0.075l0.922-0.213   c0.792-0.177,1.926-0.353,3.422-0.529c1.496-0.219,3.051-0.328,4.68-0.328c8.998,0,16.261,2.896,16.261,13.081v18.169   c0,0.759,0.021,1.365,0.062,1.829c0.039,0.384,0.112,0.744,0.226,1.091c0.105,0.279,0.264,0.569,0.485,0.87l1.168,1.362   l2.806,3.256h-7.244c-0.622-0.703-1.231-1.424-1.725-2.225c-0.186-0.346-0.364-0.697-0.519-1.027   c-0.954,0.7-1.97,1.291-3.049,1.775c-1.239,0.575-2.473,1.016-3.712,1.325c-2.086,0.598-4.275,0.931-6.448,0.931   c-3.107,0-5.758-0.326-7.946-0.996c-2.126-0.619-3.881-1.469-5.25-2.564c-2.561-2.047-3.844-4.9-3.844-8.158   c0-2.776,0.699-5.134,2.128-7.023c1.455-1.863,3.506-3.344,6.125-4.454c2.606-1.147,5.74-2.022,9.406-2.634   C68.179,117.556,72.11,117.051,76.466,116.665z M73.434,136.098c1.06-0.628,2.05-1.446,2.972-2.46l0.06-11.505   c-5.508,0.499-13.272,1.323-18.435,3.411c-1.939,0.8-3.314,1.743-4.188,2.815c-0.824,1.06-1.241,2.337-1.241,3.87   c0,0.568,0.111,1.234,0.351,2.004c0.26,0.667,0.769,1.348,1.588,2.044c0.79,0.632,1.921,1.185,3.439,1.647   c1.527,0.455,3.585,0.69,6.198,0.69c0.674,0,1.517-0.063,2.528-0.19c1.046-0.126,2.138-0.379,3.268-0.756   C71.144,137.294,72.298,136.771,73.434,136.098z"/>
	<path fill="#FF9900" d="M213.5,104.354h6.27l-21.112,38.88h-3.844l-21.043-38.88h6.333l9.566,18.077l3.761,7.133   c1.13,2.033,2.24,4.062,3.337,6.096l3.338-6.226c1.296-2.376,2.573-4.778,3.826-7.197L213.5,104.354z"/>
	<path fill-rule="evenodd" clip-rule="evenodd" fill="#808080" d="M126.122,91.701v51.533h-5.659l0-1.803l0.072-1.473   c-0.507,0.362-1.051,0.715-1.633,1.059c-1.387,0.806-3.023,1.49-4.915,2.061c-1.888,0.63-4.084,0.936-6.593,0.936   c-3.434,0-6.478-0.553-9.112-1.668c-2.612-1.15-4.803-2.667-6.548-4.547c-1.734-1.912-3.051-4.076-3.941-6.479   c-0.886-2.439-1.332-4.951-1.332-7.525c0-2.834,0.487-5.478,1.466-7.928c0.979-2.487,2.36-4.65,4.146-6.48   c4.05-4.049,9.552-5.811,15.191-5.811c2.522,0,4.975,0.375,7.365,1.127c2.063,0.611,4.005,1.533,5.833,2.764V91.701H126.122z    M119.881,133.687c0.218-0.187,0.412-0.361,0.583-0.524l0.064-18.798c-2.108-1.992-4.22-3.361-6.322-4.129   c-2.137-0.839-4.433-1.262-6.876-1.262c-2.492,0-4.67,0.402-6.536,1.19c-1.878,0.752-3.482,1.813-4.809,3.183   c-2.715,2.803-3.93,6.598-3.93,10.447c0,3.828,1.292,7.574,3.933,10.387c1.287,1.328,2.86,2.407,4.748,3.247   c1.91,0.788,4.121,1.188,6.659,1.188c1.907,0,3.556-0.21,4.963-0.624c1.483-0.467,2.767-1.018,3.85-1.641   c0.54-0.291,1.044-0.606,1.5-0.938c0.469-0.342,0.91-0.678,1.336-1.019L119.881,133.687z"/>
	<path fill-rule="evenodd" clip-rule="evenodd" fill="#808080" d="M170.505,91.701v51.533h-5.658l0-1.803l0.072-1.473   c-0.507,0.362-1.051,0.715-1.632,1.059c-1.387,0.806-3.023,1.49-4.916,2.061c-1.887,0.63-4.083,0.936-6.593,0.936   c-3.433,0-6.477-0.553-9.111-1.668c-2.612-1.151-4.803-2.667-6.548-4.547c-1.735-1.912-3.051-4.076-3.941-6.479   c-0.887-2.439-1.332-4.951-1.332-7.525c0-2.834,0.486-5.477,1.466-7.928c0.978-2.487,2.36-4.65,4.146-6.48   c4.049-4.049,9.552-5.811,15.191-5.811c2.521,0,4.975,0.375,7.365,1.127c2.064,0.611,4.005,1.533,5.833,2.764V91.701H170.505z    M164.265,133.687c0.218-0.187,0.412-0.361,0.583-0.524l0.064-18.798c-2.108-1.992-4.22-3.361-6.323-4.129   c-2.137-0.839-4.432-1.262-6.876-1.262c-2.492,0-4.67,0.402-6.535,1.19c-1.878,0.752-3.482,1.813-4.809,3.183   c-2.715,2.803-3.93,6.598-3.93,10.447c0,3.828,1.292,7.574,3.933,10.387c1.287,1.328,2.86,2.407,4.748,3.247   c1.91,0.788,4.121,1.188,6.659,1.188c1.907,0,3.556-0.21,4.963-0.624c1.483-0.467,2.767-1.018,3.85-1.641   c0.54-0.291,1.044-0.606,1.501-0.938c0.468-0.342,0.91-0.678,1.336-1.019L164.265,133.687z"/>
	<rect x="260.969" y="91.701" fill="#FF9900" width="5.594" height="51.533"/>
	<path fill="#FF9900" d="M310.167,104.354v38.88h-5.657l0.001-1.487c0.041-0.508,0.063-1.2,0.063-2.003l0.06-1.115   c-0.972,0.623-1.904,1.184-2.8,1.682c-1.191,0.662-2.422,1.234-3.701,1.719c-3.302,1.32-6.526,1.984-9.678,1.984   c-4.684,0-8.332-1.262-10.849-3.869c-1.13-1.176-1.976-2.498-2.522-3.957c-0.547-1.504-0.812-3.284-0.812-5.318v-26.515h5.593   v26.448c0,1.263,0.125,2.357,0.37,3.295c0.23,0.846,0.696,1.604,1.407,2.275c0.497,0.497,1.281,1.01,2.376,1.516   c1.018,0.47,2.524,0.728,4.567,0.728c1.136,0,2.349-0.126,3.65-0.378c2.852-0.623,5.474-1.869,8.023-3.253   c1.417-0.771,2.833-1.674,4.251-2.712v-27.919H310.167z"/>
	<path fill-rule="evenodd" clip-rule="evenodd" fill="#FF9900" d="M246.431,116.665c-0.024-1.249-0.192-2.326-0.491-3.219   c-0.271-0.971-0.801-1.775-1.573-2.394c-0.779-0.662-1.873-1.18-3.284-1.512c-1.408-0.371-3.225-0.566-5.446-0.566   c-3.121,0-6.403,0.402-9.235,1.787l-0.572-5.791c0.197-0.096,0.363-0.189,0.568-0.249l0.28-0.075l0.922-0.213   c0.792-0.177,1.927-0.353,3.423-0.529c1.496-0.219,3.051-0.328,4.68-0.328c8.997,0,16.262,2.896,16.262,13.081v18.169   c0,0.759,0.02,1.365,0.062,1.829c0.039,0.384,0.112,0.744,0.227,1.091c0.108,0.288,0.275,0.588,0.509,0.899l1.146,1.334   l2.805,3.255h-7.243c-0.622-0.703-1.232-1.424-1.726-2.225c-0.186-0.346-0.364-0.697-0.519-1.027   c-0.954,0.7-1.97,1.291-3.049,1.775c-1.239,0.575-2.473,1.016-3.712,1.325c-2.086,0.598-4.275,0.931-6.448,0.931   c-3.106,0-5.757-0.326-7.945-0.996c-5.282-1.539-9.094-4.928-9.094-10.723c0-2.776,0.698-5.134,2.127-7.023   c1.455-1.863,3.507-3.344,6.126-4.454c2.606-1.147,5.74-2.022,9.405-2.634C238.145,117.556,242.076,117.051,246.431,116.665z    M243.399,136.098c1.06-0.628,2.051-1.446,2.973-2.46l0.06-11.505c-5.509,0.499-13.271,1.323-18.435,3.411   c-1.939,0.8-3.314,1.743-4.188,2.815c-0.823,1.06-1.241,2.337-1.241,3.87c0,0.568,0.111,1.234,0.352,2.004   c0.259,0.667,0.769,1.348,1.587,2.044c0.79,0.632,1.921,1.185,3.44,1.647c1.527,0.455,3.585,0.69,6.197,0.69   c0.674,0,1.517-0.063,2.528-0.19c1.046-0.126,2.139-0.379,3.268-0.756C241.11,137.294,242.264,136.771,243.399,136.098z"/>
	<g>
		<path fill-rule="evenodd" clip-rule="evenodd" fill="#808080" d="M249.468,164.017h-3.839l-0.998,2.599h-1.988l4.046-10.193h1.706    l4.045,10.193h-1.973L249.468,164.017z M247.534,158.875c-0.355,1.066-0.673,1.958-0.952,2.674l-0.351,0.907h2.637l-0.352-0.907    c-0.279-0.722-0.597-1.612-0.952-2.674H247.534z"/>
		<path fill-rule="evenodd" clip-rule="evenodd" fill="#808080" d="M256.163,166.616v-10.193h2.697c0.238,0,0.479,0.008,0.724,0.022    c0.249,0.016,0.49,0.039,0.724,0.068c0.233,0.031,0.459,0.069,0.678,0.115c0.219,0.041,0.419,0.092,0.602,0.152    c0.544,0.172,1.023,0.406,1.44,0.7c0.417,0.295,0.764,0.644,1.044,1.044c0.284,0.401,0.498,0.852,0.64,1.349    c0.146,0.493,0.221,1.028,0.221,1.607c0,0.548-0.061,1.063-0.183,1.546c-0.122,0.479-0.307,0.914-0.557,1.311    c-0.248,0.396-0.562,0.746-0.944,1.052c-0.375,0.3-0.822,0.546-1.341,0.739c-0.432,0.162-0.922,0.284-1.47,0.365    c-0.549,0.081-1.166,0.122-1.852,0.122H256.163z M258.798,165.054c1.092,0,1.945-0.15,2.56-0.45    c0.544-0.269,0.955-0.66,1.235-1.173c0.279-0.514,0.418-1.168,0.418-1.965c0-0.417-0.046-0.793-0.137-1.129    c-0.091-0.334-0.224-0.631-0.396-0.891c-0.173-0.264-0.385-0.49-0.633-0.678c-0.244-0.188-0.521-0.343-0.831-0.465    c-0.289-0.111-0.611-0.193-0.967-0.244c-0.356-0.051-0.755-0.076-1.196-0.076h-0.822v7.07H258.798z"/>
		<rect x="266.444" y="156.422" fill-rule="evenodd" clip-rule="evenodd" fill="#808080" width="1.866" height="10.193"/>
		<polygon fill-rule="evenodd" clip-rule="evenodd" fill="#808080" points="272.147,166.616 270.281,166.616 270.281,156.422     276.771,156.422 276.771,157.984 272.147,157.984 272.147,160.621 276.1,160.621 276.1,162.181 272.147,162.181   "/>
		<polygon fill-rule="evenodd" clip-rule="evenodd" fill="#808080" points="279.807,166.616 277.941,166.616 277.941,156.422     284.431,156.422 284.431,157.984 279.807,157.984 279.807,160.621 283.761,160.621 283.761,162.181 279.807,162.181   "/>
		<polygon fill-rule="evenodd" clip-rule="evenodd" fill="#808080" points="287.468,165.054 292.481,165.054 292.481,166.616     285.601,166.616 285.601,156.422 292.207,156.422 292.207,157.984 287.468,157.984 287.468,160.621 291.536,160.621     291.536,162.181 287.468,162.181   "/>
		<path fill-rule="evenodd" clip-rule="evenodd" fill="#808080" d="M301.536,159.485c0,0.711-0.199,1.315-0.595,1.813    c-0.392,0.492-0.998,0.858-1.821,1.097v0.03l3.032,4.19h-2.239l-2.773-3.946h-1.279v3.946h-1.866v-10.193h3.1    c0.513,0,0.99,0.03,1.433,0.091c0.441,0.057,0.82,0.143,1.135,0.26c0.6,0.229,1.062,0.568,1.387,1.021    C301.373,158.241,301.535,158.804,301.536,159.485z M296.781,161.107c0.427,0,0.788-0.018,1.082-0.053    c0.3-0.041,0.552-0.099,0.755-0.176c0.375-0.142,0.634-0.334,0.777-0.578c0.146-0.249,0.22-0.533,0.22-0.854    c0-0.274-0.059-0.516-0.175-0.724c-0.112-0.214-0.305-0.381-0.579-0.503c-0.178-0.081-0.401-0.139-0.671-0.176    c-0.269-0.04-0.602-0.061-0.997-0.061h-1.333v3.123H296.781z"/>
		<polygon fill-rule="evenodd" clip-rule="evenodd" fill="#808080" points="305.189,165.054 310.202,165.054 310.202,166.616     303.322,166.616 303.322,156.422 309.927,156.422 309.927,157.984 305.189,157.984 305.189,160.621 309.256,160.621     309.256,162.181 305.189,162.181   "/>
		<path fill-rule="evenodd" clip-rule="evenodd" fill="#808080" d="M317.023,161.162c0.731,1.041,1.326,1.965,1.783,2.771h0.046    c-0.061-1.325-0.092-2.289-0.092-2.895v-4.616h1.866v10.193h-1.958l-3.32-4.692c-0.585-0.813-1.189-1.756-1.813-2.827h-0.046    c0.061,1.249,0.092,2.217,0.092,2.903v4.616h-1.867v-10.193h1.958L317.023,161.162z"/>
		<polygon fill-rule="evenodd" clip-rule="evenodd" fill="#808080" points="326.764,166.616 324.898,166.616 324.898,157.984     321.606,157.984 321.606,156.422 330.047,156.422 330.047,157.984 326.764,157.984   "/>
		<path fill-rule="evenodd" clip-rule="evenodd" fill="#808080" d="M338.73,157.809c-0.509,0-0.979,0.083-1.409,0.251    c-0.427,0.168-0.795,0.412-1.105,0.731c-0.305,0.32-0.543,0.716-0.716,1.188c-0.173,0.468-0.259,1.003-0.259,1.607    c0,0.6,0.078,1.127,0.236,1.584c0.157,0.453,0.383,0.831,0.678,1.136s0.652,0.536,1.074,0.693    c0.427,0.152,0.908,0.229,1.447,0.229c0.386,0,0.779-0.03,1.181-0.092c0.401-0.061,0.776-0.149,1.128-0.267v1.607    c-0.355,0.102-0.739,0.181-1.15,0.236c-0.412,0.061-0.838,0.092-1.279,0.092c-0.864,0-1.624-0.122-2.278-0.366    c-0.655-0.249-1.204-0.597-1.646-1.044c-0.438-0.451-0.767-0.99-0.991-1.614c-0.218-0.63-0.327-1.323-0.327-2.08    c0-0.777,0.117-1.498,0.351-2.163c0.238-0.666,0.579-1.242,1.021-1.729c0.447-0.487,1.004-0.871,1.669-1.15    c0.67-0.279,1.427-0.422,2.27-0.427c0.433,0,0.841,0.03,1.228,0.092c0.385,0.056,0.732,0.137,1.043,0.243v1.585    c-0.406-0.127-0.785-0.216-1.135-0.267C339.408,157.834,339.065,157.809,338.73,157.809z"/>
		<path fill-rule="evenodd" clip-rule="evenodd" fill="#808080" d="M349.971,161.519c0-0.619-0.076-1.16-0.229-1.623    c-0.153-0.467-0.363-0.855-0.633-1.165s-0.59-0.541-0.96-0.693c-0.371-0.152-0.777-0.229-1.219-0.229s-0.849,0.076-1.219,0.229    c-0.371,0.152-0.69,0.384-0.96,0.693s-0.479,0.698-0.633,1.165c-0.152,0.463-0.229,1.004-0.229,1.623s0.076,1.163,0.229,1.63    c0.153,0.462,0.363,0.849,0.633,1.158c0.27,0.305,0.589,0.536,0.96,0.693c0.37,0.152,0.776,0.229,1.219,0.229    c0.441,0,0.848-0.076,1.219-0.229c0.37-0.157,0.69-0.389,0.96-0.693c0.27-0.31,0.479-0.696,0.633-1.158    C349.895,162.682,349.971,162.138,349.971,161.519z M351.898,161.519c0,0.777-0.112,1.49-0.335,2.141    c-0.219,0.645-0.541,1.201-0.968,1.668c-0.422,0.467-0.942,0.83-1.562,1.09c-0.615,0.259-1.315,0.389-2.103,0.389    s-1.491-0.13-2.11-0.389c-0.614-0.26-1.135-0.623-1.562-1.09c-0.422-0.467-0.744-1.023-0.968-1.668    c-0.219-0.65-0.327-1.363-0.327-2.141s0.108-1.488,0.327-2.133c0.224-0.65,0.546-1.209,0.968-1.677    c0.427-0.467,0.947-0.83,1.562-1.089c0.619-0.26,1.323-0.389,2.11-0.389s1.487,0.129,2.103,0.389    c0.619,0.259,1.14,0.622,1.562,1.089c0.427,0.468,0.749,1.026,0.968,1.677C351.786,160.031,351.898,160.742,351.898,161.519z"/>
		<path fill-rule="evenodd" clip-rule="evenodd" fill="#808080" d="M358.652,163.88c0.224-0.803,0.5-1.663,0.83-2.582l1.761-4.876    h2.62v10.193h-1.866v-5.165c0-0.757,0.03-1.636,0.092-2.637h-0.069c-0.087,0.29-0.188,0.615-0.305,0.976    c-0.116,0.36-0.239,0.716-0.366,1.066l-2.109,5.76h-1.203l-2.111-5.76c-0.127-0.351-0.248-0.706-0.365-1.066    s-0.219-0.686-0.305-0.976h-0.068c0.061,0.939,0.091,1.816,0.091,2.629v5.173h-1.866v-10.193h2.605l1.76,4.853    c0.295,0.808,0.571,1.676,0.83,2.605H358.652z"/>
		<path fill-rule="evenodd" clip-rule="evenodd" fill="#808080" d="M368.651,162.669c-0.168,0-0.332-0.002-0.495-0.008    c-0.162-0.005-0.315-0.015-0.457-0.03v3.984h-1.866v-10.193h2.94c0.492,0,0.922,0.022,1.288,0.068c0.37,0.041,0.7,0.104,0.99,0.19    c0.695,0.213,1.23,0.554,1.607,1.021c0.375,0.467,0.562,1.061,0.563,1.782c0,0.493-0.102,0.937-0.305,1.333    c-0.203,0.392-0.501,0.724-0.892,0.998s-0.868,0.485-1.433,0.633C370.03,162.595,369.382,162.669,368.651,162.669z     M367.699,161.062c0.106,0.016,0.241,0.027,0.403,0.038c0.168,0.005,0.341,0.007,0.519,0.007c0.503,0,0.924-0.04,1.265-0.121    c0.34-0.082,0.615-0.193,0.822-0.336c0.209-0.146,0.358-0.322,0.45-0.525c0.091-0.208,0.137-0.434,0.137-0.678    c0-0.3-0.068-0.559-0.206-0.777c-0.137-0.218-0.375-0.389-0.716-0.51c-0.178-0.061-0.398-0.104-0.663-0.13    c-0.258-0.03-0.578-0.046-0.959-0.046h-1.052V161.062z"/>
		<path fill-rule="evenodd" clip-rule="evenodd" fill="#808080" d="M380.571,164.017h-3.84l-0.998,2.599h-1.988l4.045-10.193h1.707    l4.045,10.193h-1.973L380.571,164.017z M378.635,158.875c-0.355,1.066-0.673,1.958-0.952,2.674l-0.351,0.907h2.636l-0.351-0.907    c-0.279-0.722-0.597-1.612-0.952-2.674H378.635z"/>
		<path fill-rule="evenodd" clip-rule="evenodd" fill="#808080" d="M389.831,161.162c0.73,1.041,1.325,1.965,1.783,2.771h0.045    c-0.061-1.325-0.092-2.289-0.092-2.895v-4.616h1.867v10.193h-1.958l-3.321-4.692c-0.584-0.813-1.189-1.756-1.813-2.827h-0.046    c0.061,1.249,0.092,2.217,0.092,2.903v4.616h-1.867v-10.193h1.959L389.831,161.162z"/>
		<polygon fill-rule="evenodd" clip-rule="evenodd" fill="#808080" points="399.144,160.81 401.856,156.422 403.928,156.422     400.066,162.509 400.066,166.616 398.2,166.616 398.2,162.509 394.336,156.422 396.409,156.422 399.122,160.81   "/>
	</g>
	<path fill-rule="evenodd" clip-rule="evenodd" fill="#FF9900" d="M353.733,115.994c1.029,2.51,1.532,5.568,1.532,9.164v0.557   h-34.669c0.213,2.273,0.761,4.193,1.633,5.787c1.006,1.717,2.202,3.098,3.609,4.174c1.463,1.045,3.017,1.789,4.682,2.246   c1.73,0.465,3.411,0.694,5.045,0.694c1.79,0,3.637-0.149,5.554-0.447c1.981-0.344,3.823-0.708,5.545-1.096   c1.763-0.43,3.278-0.835,4.568-1.222c1.138-0.367,2.269-0.744,3.392-1.15l0.414,5.462c-2.396,0.72-4.78,1.412-7.209,2.02   c-1.911,0.434-3.98,0.848-6.196,1.238c-2.198,0.396-4.179,0.593-5.938,0.593c-2.697,0-5.355-0.422-7.962-1.261   c-2.631-0.892-4.979-2.323-7.026-4.28c-1.786-1.744-3.214-3.866-4.279-6.351c-1.028-2.505-1.536-5.438-1.536-8.781   c0-3.05,0.532-5.813,1.605-8.272c1.114-2.451,2.68-4.556,4.688-6.295c1.864-1.6,3.976-2.866,6.325-3.796   c2.41-0.938,5.143-1.401,8.185-1.401c2.714,0,5.272,0.531,7.683,1.604c2.453,1.024,4.635,2.543,6.545,4.542   C351.49,111.423,352.759,113.519,353.733,115.994z M320.69,120.447h28.535c0,0-0.638-2.429-1.375-3.862   c-0.749-1.498-1.731-2.813-2.936-3.935c-1.158-1.118-2.533-2.016-4.117-2.683c-1.524-0.658-3.224-0.993-5.103-0.993   c-2.147,0-4.117,0.338-5.909,1.004c-1.758,0.628-3.299,1.503-4.629,2.625C322.838,114.623,321.159,117.388,320.69,120.447z"/>
</g>
</svg>