<svg xmlns="http://www.w3.org/2000/svg" viewBox="0 0 623.62 255.12"><defs><style>.cls-1{fill:#fff;}.cls-2{fill:#16214d;fill-rule:evenodd;}.cls-3{fill:#eb5424;}</style></defs><title>auth0</title><g id="BG"><rect class="cls-1" width="623.62" height="255.12"/></g><g id="Logo"><path class="cls-2" d="M309.65,138.53h-26a.57.57,0,0,1-.48-.24.54.54,0,0,1-.1-.52l13-44.76a.62.62,0,0,1,.74-.43.6.6,0,0,1,.43.43l13,44.76a.57.57,0,0,1-.1.52A.59.59,0,0,1,309.65,138.53Zm12.08,38.77H338.6L312.88,88.59a16.92,16.92,0,0,0-32.43,0l-25.73,88.72h16.92l7.43-25.69a.6.6,0,0,1,.58-.44h34a.62.62,0,0,1,.59.44Zm95.07-51h9.92a.6.6,0,0,1,.6.6v35a16.81,16.81,0,0,0,16.87,16.68,35,35,0,0,0,9.92-1.43V165.7c-1.86.16-4,.27-5.53.27a5,5,0,0,1-5-5V126.94a.6.6,0,0,1,.61-.6h9.92V113.7h-9.92a.61.61,0,0,1-.61-.61v-21H427.26v21a.6.6,0,0,1-.6.61h-9.92Zm93.78,51H526.8V133.37a21.14,21.14,0,0,0-21.24-21,35.54,35.54,0,0,0-18.85,5.84.63.63,0,0,1-.94-.52V77.81h-16.3V177.3h16.26V129.74a.58.58,0,0,1,.33-.53c3.05-1.56,9.08-4.18,15.13-4.18a9.32,9.32,0,0,1,6.6,2.71,9.12,9.12,0,0,1,2.74,6.49v43ZM347.69,113.7v43.92a21.16,21.16,0,0,0,21.25,21,35.47,35.47,0,0,0,20.77-7.17.63.63,0,0,1,.56-.1.6.6,0,0,1,.39.4l1.72,5.55h12.69V113.7h-16.3v47.56a.62.62,0,0,1-.33.54c-3.05,1.56-9.09,4.18-15.13,4.18a9.31,9.31,0,0,1-9.35-9.24v-43ZM574.34,166c-5,0-8.93-2.8-12.08-8.56-3.78-6.94-5.86-17.55-5.86-29.85s2.08-22.91,5.86-29.85c3.13-5.76,7.08-8.56,12.08-8.56s8.93,2.8,12.07,8.56c3.78,6.94,5.86,17.55,5.86,29.85s-2.08,22.91-5.86,29.85C583.29,163.17,579.34,166,574.34,166Zm0-89.48c-10.46,0-19.31,4.88-25.58,14.09s-9.53,22-9.53,37,3.29,27.78,9.53,37,15.12,14.09,25.58,14.09,19.3-4.88,25.57-14.09,9.54-22,9.54-37-3.3-27.78-9.54-37-15.12-14.09-25.57-14.09Z"/><path id="NEW" class="cls-3" d="M201.68,86.53l-21.61-66.4H110.26l21.58,66.4Zm-91.42-66.4H40.45L18.88,86.53H88.69ZM18.88,86.53h0A96.09,96.09,0,0,0,53.78,194l21.57-66.39Zm182.76,0h0l-56.51,41L166.7,194h0a96.08,96.08,0,0,0,35-107.42ZM53.78,194h0l56.49,41,56.47-41-56.48-41Z"/></g></svg>