<?xml version="1.0" encoding="UTF-8"?>
<svg width="284px" height="100px" viewBox="0 0 284 100" version="1.1" xmlns="http://www.w3.org/2000/svg" xmlns:xlink="http://www.w3.org/1999/xlink">
    <!-- Generator: Sketch 40.3 (33839) - http://www.bohemiancoding.com/sketch -->
    <title>Group 2</title>
    <desc>Created with Sketch.</desc>
    <defs>
        <polygon id="path-1" points="0 79 242.107 79 242.107 0.494 0 0.494"></polygon>
        <polygon id="path-3" points="23.45995 78.3447 0 78.3447 0 -0.0003 23.45995 -0.0003 46.9199 -0.0003 46.9199 78.3447 23.45995 78.3447"></polygon>
        <polygon id="path-5" points="0.5625 15 8.5475 15 8.5475 0.6702 0.5625 0.6702"></polygon>
        <polygon id="path-7" points="0 15 283.654 15 283.654 0.67 0 0.67"></polygon>
    </defs>
    <g id="Page-1" stroke="none" stroke-width="1" fill="none" fill-rule="evenodd">
        <g id="Group-2">
            <g id="Page-1" transform="translate(41.000000, 0.000000)">
                <polygon id="Fill-1" fill="#9C9C9C" points="165.529 79.3448 173.356 79.3448 173.356 0.9998 165.529 0.9998"></polygon>
                <polygon id="Fill-2" fill="#9C9C9C" points="234.3888 0.9997 234.3888 61.0557 182.2448 0.9997 180.5408 0.9997 180.5408 79.3447 188.6388 79.3447 188.6388 20.0167 240.3508 79.3447 242.1068 79.3447 242.1068 0.9997"></polygon>
                <polygon id="Fill-3" fill="#1D1C1B" points="0 0.9997 0 79.3447 37.976 79.3447 37.976 71.7797 7.83 71.7797 7.83 0.9997"></polygon>
                <polygon id="Fill-4" fill="#1D1C1B" points="73.2186 1.1581 112.3916 40.3291 73.2186 79.5061 84.2906 79.5061 117.9296 45.8661 123.4646 40.3291 117.9296 34.7941 84.2926 1.1581"></polygon>
                <polygon id="Fill-5" fill="#9C9C9C" points="151.3971 1.1581 120.2451 32.3061 120.3301 32.3931 125.7811 37.8491 162.4691 1.1581"></polygon>
                <polygon id="Fill-6" fill="#9C9C9C" points="120.33 48.2713 120.245 48.3503 151.397 79.5053 162.469 79.5053 125.781 42.8153"></polygon>
                <polygon id="Fill-7" fill="#1D1C1B" points="35.5428 0.9997 35.5428 79.3447 68.5738 79.3447 70.8188 77.1057 76.2498 71.6747 43.3688 71.6747 43.3688 8.6687 75.9278 8.6687 70.8188 3.5577 68.2618 0.9997"></polygon>
                <g id="Group-12" transform="translate(0.000000, 0.505800)">
                    <path d="M124.9356,16.9756 C124.9356,20.0626 122.4316,22.5616 119.3476,22.5616 C116.2596,22.5616 113.7616,20.0626 113.7616,16.9756 C113.7616,13.8896 116.2596,11.3856 119.3476,11.3856 C122.4316,11.3856 124.9356,13.8896 124.9356,16.9756 L124.9356,16.9756 Z" id="Fill-8" fill="#F29200"></path>
                    <mask id="mask-2" fill="white">
                        <use xlink:href="#path-1"></use>
                    </mask>
                    <g id="Clip-11"></g>
                    <polygon id="Fill-10" fill="#1D1C1B" mask="url(#mask-2)" points="38.545 43.577 116.872 43.577 116.872 35.754 38.545 35.754"></polygon>
                </g>
            </g>
            <g id="Page-1">
                <mask id="mask-4" fill="white">
                    <use xlink:href="#path-3"></use>
                </mask>
                <g id="Clip-2"></g>
                <path d="M7.6699,40.6347 L7.6699,70.6747 L17.3809,70.6747 C23.1049,70.6747 27.3009,70.1177 29.9709,68.9987 C32.6389,67.8787 34.7779,66.1287 36.3989,63.7527 C38.0139,61.3717 38.8269,58.7997 38.8269,56.0297 C38.8269,52.5467 37.6899,49.5157 35.4159,46.9237 C33.1399,44.3317 30.0099,42.5517 26.0299,41.5927 C23.3609,40.9547 18.7159,40.6347 12.0989,40.6347 L7.6699,40.6347 Z M7.6699,7.6687 L7.6699,32.7537 L12.1539,32.7537 C17.5969,32.7537 21.5979,32.2477 24.1589,31.2397 C26.7229,30.2247 28.7509,28.6287 30.2439,26.4397 C31.7409,24.2627 32.4899,21.8377 32.4899,19.1717 C32.4899,15.5837 31.2339,12.7697 28.7239,10.7307 C26.2179,8.6907 22.2239,7.6687 16.7429,7.6687 L7.6699,7.6687 Z M-0.0001,-0.0003 L15.4429,-0.0003 C21.6599,-0.0003 26.4359,0.7357 29.7719,2.2077 C33.1089,3.6837 35.7469,5.9467 37.6799,9.0017 C39.6159,12.0527 40.5869,15.4427 40.5869,19.1717 C40.5869,22.6547 39.7329,25.8207 38.0379,28.6787 C36.3429,31.5417 33.8509,33.8547 30.5659,35.6297 C34.6369,37.0167 37.7729,38.6367 39.9659,40.5047 C42.1569,42.3667 43.8669,44.6237 45.0889,47.2717 C46.3109,49.9117 46.9199,52.7807 46.9199,55.8667 C46.9199,62.1517 44.6249,67.4707 40.0239,71.8197 C35.4249,76.1727 29.2559,78.3447 21.5189,78.3447 L-0.0001,78.3447 L-0.0001,-0.0003 Z" id="Fill-1" fill="#1D1C1B" mask="url(#mask-4)"></path>
            </g>
            <g id="Group" transform="translate(0.000000, 84.000000)">
                <g id="Page-1">
                    <polygon id="Fill-1" fill="#1D1C1B" points="15.0822 1.3441 12.2482 11.1751 8.3812 1.3441 8.0982 1.3441 4.1872 11.1751 1.4002 1.3441 0.0002 1.3441 3.8682 14.9851 4.1242 14.9851 8.2492 4.6621 12.2982 14.9851 12.5512 14.9851 16.4722 1.3441"></polygon>
                    <polygon id="Fill-2" fill="#1D1C1B" points="18.918 1.3441 18.918 14.9851 26.68 14.9851 26.68 13.6511 20.281 13.6511 20.281 8.2891 26.68 8.2891 26.68 6.9541 20.281 6.9541 20.281 2.6801 26.736 2.6801 26.736 1.3441"></polygon>
                    <g id="Group-33" transform="translate(0.000000, 0.330100)">
                        <path d="M30.3701,8.0888 L30.3701,13.3198 L32.0611,13.3198 C33.0581,13.3198 33.7891,13.2218 34.2541,13.0278 C34.7191,12.8318 35.0911,12.5268 35.3731,12.1138 C35.6551,11.7008 35.7961,11.2528 35.7961,10.7708 C35.7961,10.1638 35.5971,9.6338 35.2011,9.1838 C34.8051,8.7338 34.2611,8.4228 33.5671,8.2558 C33.1021,8.1448 32.2941,8.0888 31.1411,8.0888 L30.3701,8.0888 L30.3701,8.0888 Z M30.3701,2.3498 L30.3701,6.7168 L31.1511,6.7168 C32.0991,6.7168 32.7971,6.6288 33.2431,6.4508 C33.6881,6.2768 34.0421,5.9978 34.3021,5.6168 C34.5621,5.2378 34.6921,4.8138 34.6921,4.3528 C34.6921,3.7278 34.4741,3.2368 34.0371,2.8818 C33.6001,2.5268 32.9051,2.3498 31.9511,2.3498 L30.3701,2.3498 L30.3701,2.3498 Z M29.0351,1.0138 L31.7241,1.0138 C32.8061,1.0138 33.6381,1.1408 34.2201,1.3988 C34.8011,1.6548 35.2601,2.0478 35.5971,2.5798 C35.9331,3.1118 36.1021,3.7008 36.1021,4.3528 C36.1021,4.9568 35.9551,5.5078 35.6601,6.0058 C35.3641,6.5048 34.9301,6.9068 34.3571,7.2168 C35.0671,7.4578 35.6121,7.7418 35.9951,8.0658 C36.3771,8.3918 36.6751,8.7828 36.8871,9.2438 C37.0991,9.7048 37.2061,10.2038 37.2061,10.7408 C37.2061,11.8358 36.8061,12.7608 36.0061,13.5188 C35.2041,14.2758 34.1301,14.6548 32.7821,14.6548 L29.0351,14.6548 L29.0351,1.0138 L29.0351,1.0138 Z" id="Fill-3" fill="#1D1C1B"></path>
                        <g id="Group-7" transform="translate(43.000000, 0.000000)">
                            <mask id="mask-6" fill="white">
                                <use xlink:href="#path-5"></use>
                            </mask>
                            <g id="Clip-6"></g>
                            <path d="M0.5625,12.1142 L1.7225,11.4172 C2.5385,12.9232 3.4815,13.6722 4.5505,13.6722 C5.0075,13.6722 5.4385,13.5662 5.8395,13.3512 C6.2415,13.1392 6.5475,12.8532 6.7585,12.4932 C6.9685,12.1352 7.0735,11.7572 7.0735,11.3532 C7.0735,10.8952 6.9185,10.4472 6.6105,10.0082 C6.1835,9.4032 5.4045,8.6722 4.2725,7.8182 C3.1345,6.9602 2.4265,6.3402 2.1485,5.9562 C1.6675,5.3122 1.4255,4.6182 1.4255,3.8702 C1.4255,3.2772 1.5675,2.7332 1.8525,2.2462 C2.1365,1.7592 2.5375,1.3722 3.0525,1.0912 C3.5695,0.8092 4.1305,0.6702 4.7365,0.6702 C5.3785,0.6702 5.9805,0.8282 6.5395,1.1462 C7.1005,1.4652 7.6925,2.0532 8.3165,2.9062 L7.2035,3.7492 C6.6905,3.0672 6.2535,2.6202 5.8905,2.4022 C5.5305,2.1872 5.1355,2.0792 4.7085,2.0792 C4.1595,2.0792 3.7085,2.2462 3.3605,2.5802 C3.0095,2.9142 2.8345,3.3242 2.8345,3.8122 C2.8345,4.1092 2.8975,4.3972 3.0205,4.6762 C3.1435,4.9542 3.3705,5.2572 3.6975,5.5852 C3.8765,5.7572 4.4645,6.2132 5.4595,6.9492 C6.6405,7.8182 7.4515,8.5962 7.8895,9.2762 C8.3285,9.9572 8.5475,10.6382 8.5475,11.3272 C8.5475,12.3152 8.1715,13.1742 7.4215,13.9032 C6.6695,14.6352 5.7565,15.0002 4.6805,15.0002 C3.8525,15.0002 3.1015,14.7772 2.4265,14.3352 C1.7525,13.8922 1.1305,13.1532 0.5625,12.1142" id="Fill-5" fill="#1D1C1B" mask="url(#mask-6)"></path>
                        </g>
                        <g id="Group-10" transform="translate(53.000000, 0.000000)" fill="#1D1C1B">
                            <path d="M7.8955,1.9941 C6.8855,1.9941 5.9295,2.2601 5.0265,2.7841 C4.1215,3.3111 3.4145,4.0181 2.9075,4.9091 C2.3995,5.8031 2.1455,6.7931 2.1455,7.8901 C2.1455,9.5121 2.7065,10.8791 3.8305,11.9981 C4.9555,13.1131 6.3095,13.6721 7.8955,13.6721 C8.9545,13.6721 9.9345,13.4151 10.8355,12.9011 C11.7365,12.3871 12.4405,11.6841 12.9455,10.7951 C13.4485,9.9041 13.7015,8.9131 13.7015,7.8241 C13.7015,6.7431 13.4485,5.7631 12.9455,4.8881 C12.4405,4.0111 11.7285,3.3111 10.8135,2.7841 C9.8965,2.2601 8.9235,1.9941 7.8955,1.9941 M7.8345,0.6701 C9.9015,0.6701 11.6305,1.3581 13.0235,2.7361 C14.4155,4.1171 15.1115,5.8121 15.1115,7.8291 C15.1115,9.8271 14.4165,11.5201 13.0275,12.9121 C11.6385,14.3031 9.9455,15.0001 7.9465,15.0001 C5.9235,15.0001 4.2165,14.3061 2.8245,12.9231 C1.4315,11.5361 0.7355,9.8591 0.7355,7.8921 C0.7355,6.5841 1.0525,5.3671 1.6875,4.2491 C2.3215,3.1311 3.1855,2.2541 4.2815,1.6211 C5.3755,0.9871 6.5605,0.6701 7.8345,0.6701" id="Fill-8"></path>
                        </g>
                        <polygon id="Fill-11" fill="#1D1C1B" points="70.7519 1.0136 72.1149 1.0136 72.1149 13.3386 77.3639 13.3386 77.3639 14.6556 70.7519 14.6556"></polygon>
                        <path d="M79.4765,1.0136 L80.8395,1.0136 L80.8395,9.2496 C80.8395,10.2246 80.8585,10.8336 80.8955,11.0756 C80.9625,11.6136 81.1215,12.0636 81.3685,12.4236 C81.6165,12.7866 81.9975,13.0896 82.5095,13.3326 C83.0225,13.5776 83.5385,13.7016 84.0585,13.7016 C84.5095,13.7016 84.9425,13.6036 85.3565,13.4126 C85.7715,13.2216 86.1175,12.9546 86.3955,12.6156 C86.6735,12.2756 86.8775,11.8626 87.0075,11.3796 C87.1005,11.0366 87.1465,10.3256 87.1465,9.2496 L87.1465,1.0136 L88.5095,1.0136 L88.5095,9.2496 C88.5095,10.4656 88.3905,11.4526 88.1525,12.2026 C87.9155,12.9546 87.4395,13.6066 86.7235,14.1616 C86.0105,14.7186 85.1455,14.9996 84.1325,14.9996 C83.0315,14.9996 82.0895,14.7356 81.3035,14.2096 C80.5175,13.6856 79.9935,12.9886 79.7265,12.1216 C79.5605,11.5916 79.4765,10.6326 79.4765,9.2496 L79.4765,1.0136 Z" id="Fill-13" fill="#1D1C1B"></path>
                        <polygon id="Fill-15" fill="#1D1C1B" points="90.4189 2.3496 90.4189 1.0136 97.8949 1.0136 97.8949 2.3496 94.8529 2.3496 94.8529 14.6556 93.4609 14.6556 93.4609 2.3496"></polygon>
                        <mask id="mask-8" fill="white">
                            <use xlink:href="#path-7"></use>
                        </mask>
                        <g id="Clip-18"></g>
                        <polygon id="Fill-17" fill="#1D1C1B" mask="url(#mask-8)" points="99.57 14.656 100.933 14.656 100.933 1.014 99.57 1.014"></polygon>
                        <path d="M110.5215,1.9941 C109.5115,1.9941 108.5545,2.2601 107.6515,2.7841 C106.7465,3.3111 106.0395,4.0181 105.5335,4.9091 C105.0255,5.8031 104.7705,6.7931 104.7705,7.8901 C104.7705,9.5121 105.3325,10.8791 106.4555,11.9981 C107.5805,13.1131 108.9355,13.6721 110.5215,13.6721 C111.5795,13.6721 112.5605,13.4151 113.4605,12.9011 C114.3625,12.3871 115.0655,11.6841 115.5705,10.7951 C116.0745,9.9041 116.3275,8.9131 116.3275,7.8241 C116.3275,6.7431 116.0745,5.7631 115.5705,4.8881 C115.0655,4.0111 114.3545,3.3111 113.4385,2.7841 C112.5215,2.2601 111.5485,1.9941 110.5215,1.9941 M110.4595,0.6701 C112.5275,0.6701 114.2555,1.3581 115.6485,2.7361 C117.0405,4.1171 117.7365,5.8121 117.7365,7.8291 C117.7365,9.8271 117.0415,11.5201 115.6525,12.9121 C114.2635,14.3031 112.5705,15.0001 110.5715,15.0001 C108.5495,15.0001 106.8415,14.3061 105.4495,12.9231 C104.0565,11.5361 103.3615,9.8591 103.3615,7.8921 C103.3615,6.5841 103.6775,5.3671 104.3125,4.2491 C104.9475,3.1311 105.8105,2.2541 106.9065,1.6211 C108.0005,0.9871 109.1855,0.6701 110.4595,0.6701" id="Fill-19" fill="#1D1C1B" mask="url(#mask-8)"></path>
                        <polygon id="Fill-20" fill="#1D1C1B" mask="url(#mask-8)" points="120.3877 14.6552 120.3877 1.0132 120.6847 1.0132 129.7647 11.4712 129.7647 1.0132 131.1097 1.0132 131.1097 14.6552 130.8027 14.6552 121.7977 4.3232 121.7977 14.6552"></polygon>
                        <path d="M132.9248,12.1142 L134.0838,11.4172 C134.9008,12.9232 135.8438,13.6722 136.9118,13.6722 C137.3688,13.6722 137.7998,13.5662 138.2008,13.3512 C138.6038,13.1392 138.9088,12.8532 139.1198,12.4932 C139.3298,12.1352 139.4358,11.7572 139.4358,11.3532 C139.4358,10.8952 139.2798,10.4472 138.9718,10.0082 C138.5448,9.4032 137.7658,8.6722 136.6338,7.8182 C135.4958,6.9602 134.7888,6.3402 134.5108,5.9562 C134.0288,5.3122 133.7868,4.6182 133.7868,3.8702 C133.7868,3.2772 133.9288,2.7332 134.2138,2.2462 C134.4978,1.7592 134.8988,1.3722 135.4138,1.0912 C135.9308,0.8092 136.4918,0.6702 137.0978,0.6702 C137.7398,0.6702 138.3418,0.8282 138.9018,1.1462 C139.4618,1.4652 140.0538,2.0532 140.6778,2.9062 L139.5658,3.7492 C139.0528,3.0672 138.6148,2.6202 138.2518,2.4022 C137.8918,2.1872 137.4968,2.0792 137.0708,2.0792 C136.5208,2.0792 136.0708,2.2462 135.7218,2.5802 C135.3718,2.9142 135.1958,3.3242 135.1958,3.8122 C135.1958,4.1092 135.2588,4.3972 135.3818,4.6762 C135.5058,4.9542 135.7328,5.2572 136.0598,5.5852 C136.2388,5.7572 136.8258,6.2132 137.8208,6.9492 C139.0018,7.8182 139.8128,8.5962 140.2508,9.2762 C140.6898,9.9572 140.9098,10.6382 140.9098,11.3272 C140.9098,12.3152 140.5328,13.1742 139.7828,13.9032 C139.0308,14.6352 138.1178,15.0002 137.0418,15.0002 C136.2138,15.0002 135.4628,14.7772 134.7888,14.3352 C134.1138,13.8922 133.4928,13.1532 132.9248,12.1142" id="Fill-21" fill="#1D1C1B" mask="url(#mask-8)"></path>
                        <path d="M153.2011,6.4199 C153.8631,5.9049 154.3611,5.4019 154.6951,4.9089 C154.9291,4.5549 155.0481,4.2439 155.0481,3.9709 C155.0481,3.6559 154.8941,3.3829 154.5901,3.1549 C154.2821,2.9269 153.8741,2.8109 153.3651,2.8109 C152.8811,2.8109 152.4851,2.9299 152.1831,3.1659 C151.8821,3.3989 151.7271,3.6769 151.7271,3.9979 C151.7271,4.2469 151.7911,4.4779 151.9131,4.6939 C152.2181,5.2199 152.6441,5.7939 153.2011,6.4199 M153.0311,8.2269 C151.8731,9.0989 151.1131,9.7929 150.7551,10.3099 C150.3971,10.8259 150.2171,11.3039 150.2171,11.7429 C150.2171,12.2629 150.4341,12.7209 150.8741,13.1209 C151.3141,13.5189 151.8541,13.7179 152.4911,13.7179 C152.9761,13.7179 153.4501,13.6189 153.9141,13.4209 C154.6451,13.1079 155.4821,12.5699 156.4291,11.8149 L154.2771,9.5999 C153.9061,9.2099 153.4921,8.7519 153.0311,8.2269 M159.1841,9.6099 L160.1061,10.5879 C159.5131,11.1149 158.9511,11.5679 158.4191,11.9499 C158.7901,12.2919 159.2741,12.7609 159.8711,13.3569 C160.3401,13.8259 160.7481,14.2579 161.0871,14.6549 L159.1841,14.6549 L157.3751,12.7899 C156.2381,13.7069 155.3151,14.3029 154.6021,14.5809 C153.8901,14.8589 153.1401,14.9999 152.3471,14.9999 C151.2991,14.9999 150.4561,14.6979 149.8171,14.0939 C149.1791,13.4919 148.8601,12.7369 148.8601,11.8359 C148.8601,11.1549 149.0781,10.4739 149.5071,9.7899 C149.9361,9.1059 150.8101,8.2429 152.1331,7.1959 C151.3861,6.2949 150.9061,5.6269 150.6941,5.1979 C150.4791,4.7689 150.3741,4.3599 150.3741,3.9709 C150.3741,3.2899 150.6361,2.7289 151.1601,2.2829 C151.7671,1.7639 152.5221,1.5039 153.4241,1.5039 C153.9931,1.5039 154.5131,1.6179 154.9811,1.8459 C155.4531,2.0759 155.8111,2.3839 156.0581,2.7709 C156.3061,3.1579 156.4291,3.5649 156.4291,3.9979 C156.4291,4.4559 156.2691,4.9429 155.9461,5.4609 C155.6231,5.9779 154.9891,6.6369 154.0441,7.4399 L156.1101,9.6099 L157.4671,10.9849 C158.1931,10.4499 158.7651,9.9919 159.1841,9.6099" id="Fill-22" fill="#1D1C1B" mask="url(#mask-8)"></path>
                        <path d="M181.0136,3.5449 L179.9386,4.3689 C179.3446,3.5979 178.6286,3.0119 177.7996,2.6109 C176.9676,2.2149 176.0536,2.0159 175.0566,2.0159 C173.9706,2.0159 172.9636,2.2749 172.0366,2.7969 C171.1086,3.3189 170.3876,4.0209 169.8786,4.9039 C169.3686,5.7829 169.1136,6.7739 169.1136,7.8769 C169.1136,9.5389 169.6836,10.9269 170.8256,12.0399 C171.9646,13.1529 173.4036,13.7089 175.1416,13.7089 C177.0526,13.7089 178.6506,12.9619 179.9386,11.4649 L181.0136,12.2809 C180.3326,13.1469 179.4826,13.8149 178.4676,14.2899 C177.4506,14.7619 176.3136,14.9999 175.0566,14.9999 C172.6716,14.9999 170.7906,14.2049 169.4096,12.6149 C168.2516,11.2739 167.6746,9.6519 167.6746,7.7549 C167.6746,5.7569 168.3766,4.0769 169.7766,2.7149 C171.1776,1.3509 172.9316,0.6699 175.0406,0.6699 C176.3136,0.6699 177.4626,0.9209 178.4916,1.4249 C179.5166,1.9279 180.3566,2.6359 181.0136,3.5449" id="Fill-23" fill="#1D1C1B" mask="url(#mask-8)"></path>
                        <path d="M190.209,1.9941 C189.202,1.9941 188.243,2.2601 187.342,2.7841 C186.436,3.3111 185.73,4.0181 185.222,4.9091 C184.713,5.8031 184.459,6.7931 184.459,7.8901 C184.459,9.5121 185.021,10.8791 186.145,11.9981 C187.271,13.1131 188.624,13.6721 190.209,13.6721 C191.27,13.6721 192.249,13.4151 193.15,12.9011 C194.052,12.3871 194.756,11.6841 195.26,10.7951 C195.764,9.9041 196.018,8.9131 196.018,7.8241 C196.018,6.7431 195.764,5.7631 195.26,4.8881 C194.756,4.0111 194.043,3.3111 193.129,2.7841 C192.213,2.2601 191.237,1.9941 190.209,1.9941 M190.15,0.6701 C192.218,0.6701 193.945,1.3581 195.339,2.7361 C196.73,4.1171 197.428,5.8121 197.428,7.8291 C197.428,9.8271 196.733,11.5201 195.342,12.9121 C193.953,14.3031 192.26,15.0001 190.262,15.0001 C188.237,15.0001 186.531,14.3061 185.137,12.9231 C183.746,11.5361 183.049,9.8591 183.049,7.8921 C183.049,6.5841 183.367,5.3671 184.003,4.2491 C184.637,3.1311 185.5,2.2541 186.595,1.6211 C187.691,0.9871 188.873,0.6701 190.15,0.6701" id="Fill-24" fill="#1D1C1B" mask="url(#mask-8)"></path>
                        <polygon id="Fill-25" fill="#1D1C1B" mask="url(#mask-8)" points="200.0771 14.6552 200.0771 1.0132 200.3741 1.0132 209.4521 11.4712 209.4521 1.0132 210.7991 1.0132 210.7991 14.6552 210.4911 14.6552 201.4871 4.3232 201.4871 14.6552"></polygon>
                        <path d="M212.6133,12.1142 L213.7713,11.4172 C214.5883,12.9232 215.5313,13.6722 216.6013,13.6722 C217.0573,13.6722 217.4893,13.5662 217.8893,13.3512 C218.2923,13.1392 218.5993,12.8532 218.8083,12.4932 C219.0183,12.1352 219.1243,11.7572 219.1243,11.3532 C219.1243,10.8952 218.9703,10.4472 218.6613,10.0082 C218.2343,9.4032 217.4553,8.6722 216.3233,7.8182 C215.1863,6.9602 214.4763,6.3402 214.2013,5.9562 C213.7183,5.3122 213.4743,4.6182 213.4743,3.8702 C213.4743,3.2772 213.6183,2.7332 213.9043,2.2462 C214.1873,1.7592 214.5883,1.3722 215.1013,1.0912 C215.6213,0.8092 216.1833,0.6702 216.7873,0.6702 C217.4283,0.6702 218.0333,0.8282 218.5883,1.1462 C219.1513,1.4652 219.7443,2.0532 220.3673,2.9062 L219.2543,3.7492 C218.7433,3.0672 218.3023,2.6202 217.9423,2.4022 C217.5823,2.1872 217.1843,2.0792 216.7603,2.0792 C216.2103,2.0792 215.7583,2.2462 215.4093,2.5802 C215.0593,2.9142 214.8843,3.3242 214.8843,3.8122 C214.8843,4.1092 214.9483,4.3972 215.0703,4.6762 C215.1943,4.9542 215.4203,5.2572 215.7483,5.5852 C215.9283,5.7572 216.5163,6.2132 217.5103,6.9492 C218.6893,7.8182 219.5013,8.5962 219.9403,9.2762 C220.3813,9.9572 220.5973,10.6382 220.5973,11.3272 C220.5973,12.3152 220.2213,13.1742 219.4743,13.9032 C218.7213,14.6352 217.8073,15.0002 216.7313,15.0002 C215.9023,15.0002 215.1523,14.7772 214.4763,14.3352 C213.8033,13.8922 213.1833,13.1532 212.6133,12.1142" id="Fill-26" fill="#1D1C1B" mask="url(#mask-8)"></path>
                        <path d="M223.4336,1.0136 L224.7976,1.0136 L224.7976,9.2496 C224.7976,10.2246 224.8166,10.8336 224.8536,11.0756 C224.9216,11.6136 225.0796,12.0636 225.3256,12.4236 C225.5746,12.7866 225.9556,13.0896 226.4666,13.3326 C226.9786,13.5776 227.4976,13.7016 228.0176,13.7016 C228.4676,13.7016 228.8996,13.6036 229.3156,13.4126 C229.7296,13.2216 230.0736,12.9546 230.3546,12.6156 C230.6296,12.2756 230.8366,11.8626 230.9636,11.3796 C231.0596,11.0366 231.1046,10.3256 231.1046,9.2496 L231.1046,1.0136 L232.4686,1.0136 L232.4686,9.2496 C232.4686,10.4656 232.3476,11.4526 232.1086,12.2026 C231.8726,12.9546 231.3986,13.6066 230.6836,14.1616 C229.9676,14.7186 229.1036,14.9996 228.0916,14.9996 C226.9896,14.9996 226.0456,14.7356 225.2616,14.2096 C224.4776,13.6856 223.9516,12.9886 223.6846,12.1216 C223.5176,11.5916 223.4336,10.6326 223.4336,9.2496 L223.4336,1.0136 Z" id="Fill-27" fill="#1D1C1B" mask="url(#mask-8)"></path>
                        <polygon id="Fill-28" fill="#1D1C1B" mask="url(#mask-8)" points="235.7314 1.0136 237.0954 1.0136 237.0954 13.3386 242.3424 13.3386 242.3424 14.6556 235.7314 14.6556"></polygon>
                        <polygon id="Fill-29" fill="#1D1C1B" mask="url(#mask-8)" points="242.1836 2.3496 242.1836 1.0136 249.6586 1.0136 249.6586 2.3496 246.6176 2.3496 246.6176 14.6556 245.2256 14.6556 245.2256 2.3496"></polygon>
                        <polygon id="Fill-30" fill="#1D1C1B" mask="url(#mask-8)" points="251.336 14.656 252.698 14.656 252.698 1.014 251.336 1.014"></polygon>
                        <polygon id="Fill-31" fill="#1D1C1B" mask="url(#mask-8)" points="255.7402 14.6552 255.7402 1.0132 256.0372 1.0132 265.1152 11.4712 265.1152 1.0132 266.4622 1.0132 266.4622 14.6552 266.1542 14.6552 257.1502 4.3232 257.1502 14.6552"></polygon>
                        <path d="M282.8457,3.3037 L281.7877,4.3047 C281.0287,3.5577 280.1937,2.9907 279.2897,2.6037 C278.3837,2.2167 277.5007,2.0237 276.6427,2.0237 C275.5727,2.0237 274.5547,2.2857 273.5847,2.8107 C272.6167,3.3377 271.8667,4.0507 271.3377,4.9497 C270.8047,5.8497 270.5367,6.8007 270.5367,7.8027 C270.5367,8.8277 270.8127,9.8037 271.3637,10.7287 C271.9147,11.6537 272.6727,12.3787 273.6457,12.9067 C274.6177,13.4367 275.6777,13.7007 276.8357,13.7007 C278.2377,13.7007 279.4247,13.3037 280.3977,12.5147 C281.3697,11.7217 281.9427,10.6967 282.1217,9.4357 L277.7717,9.4357 L277.7717,8.1157 L283.6547,8.1157 C283.6407,10.2247 283.0127,11.8997 281.7757,13.1397 C280.5347,14.3797 278.8757,14.9997 276.7987,14.9997 C274.2767,14.9997 272.2807,14.1387 270.8077,12.4187 C269.6757,11.0967 269.1117,9.5677 269.1117,7.8287 C269.1117,6.5357 269.4347,5.3327 270.0837,4.2207 C270.7337,3.1077 271.6237,2.2387 272.7547,1.6107 C273.8867,0.9827 275.1657,0.6697 276.5947,0.6697 C277.7497,0.6697 278.8387,0.8787 279.8597,1.2947 C280.8797,1.7137 281.8727,2.3807 282.8457,3.3037" id="Fill-32" fill="#1D1C1B" mask="url(#mask-8)"></path>
                    </g>
                </g>
            </g>
        </g>
    </g>
</svg>