<svg xmlns="http://www.w3.org/2000/svg" xmlns:xlink="http://www.w3.org/1999/xlink" viewBox="0 0 623.62 255.12"><defs><style>.cls-1{fill:#af3135;}.cls-2{fill:#fff;}</style><symbol id="Nuovo_simbolo" data-name="Nuovo simbolo" viewBox="0 0 147.5 35.2"><g id="Nuovo_simbolo-3" data-name="Nuovo simbolo"><g id="Nuovo_simbolo_1" data-name="Nuovo simbolo 1"><g id="Nuovo_simbolo-4" data-name="Nuovo simbolo"><path class="cls-1" d="M13,11.8A12,12,0,0,0,7.5,13a.63.63,0,0,1-.9-.5V.6A.65.65,0,0,0,6,0H.6A.65.65,0,0,0,0,.6V27.5c0,4.7,6.1,7.7,13,7.7,6.5,0,12.9-3.5,12.9-8V19.9C25.8,15.3,20.3,11.8,13,11.8Zm6.3,15.3c0,1.2-3.9,2.1-6.4,2.1-2.7,0-6.4-.9-6.4-2.1V19.8c0-1.2,3.4-2.2,6.4-2.2,2.7,0,6.3,1.1,6.3,2.2v7.3Z"/><path d="M147.3,29.8l-1.9-3.1a.56.56,0,0,0-.9-.1c-1.7,1.5-3.7,2.6-7.6,2.6a10.51,10.51,0,0,1-5.8-1.6.6.6,0,0,1,.3-1.1l8.6-1.3c5.1-.7,7.5-2.8,7.5-6.4,0-4.1-3.5-7-10.9-7-5.7,0-10.1,1.8-11.9,4.9-1.5-2.6-4.9-4.3-8.8-4.3-2.7,0-5.6.9-7.1,2.3a.75.75,0,0,1-.9,0,9.87,9.87,0,0,0-6.5-2.3A9.09,9.09,0,0,0,96.2,14a.63.63,0,0,1-1-.5h0a.65.65,0,0,0-.6-.6H89.9a.65.65,0,0,0-.6.6v4.4c-.5-3.6-4.1-6-10.8-6-5.9,0-10.4,1.9-12.1,5.2-1.4-2.9-4.9-4.8-9-4.8-2.7,0-5.6.9-7.1,2.3a.75.75,0,0,1-.9,0,9.87,9.87,0,0,0-6.5-2.3,9.09,9.09,0,0,0-5.2,1.6.63.63,0,0,1-1-.5h0a.65.65,0,0,0-.6-.6H31.4a.65.65,0,0,0-.6.6v21a.65.65,0,0,0,.6.6h5.3a.65.65,0,0,0,.6-.6v-14c0-1.2,2.4-2.2,4.1-2.2,2,0,4.3,1,4.3,2.2v14a.65.65,0,0,0,.6.6h5.3a.65.65,0,0,0,.6-.6v-14c0-1.3,1.9-2.2,3.9-2.2s4.5.9,4.5,2.2v14a.65.65,0,0,0,.6.6h5.2a.65.65,0,0,0,.6-.6v-4c2.1,2.7,6.5,4.7,11.6,4.7a14.71,14.71,0,0,0,10.6-4.6v4a.65.65,0,0,0,.6.6h5.3a.65.65,0,0,0,.6-.6v-14c-.1-1.1,2.3-2.1,4-2.1,2,0,4.3,1,4.3,2.2v14a.65.65,0,0,0,.6.6h5.3a.65.65,0,0,0,.6-.6v-14c0-1.3,1.9-2.2,3.9-2.2s4.5.9,4.5,2.2v14a.65.65,0,0,0,.6.6h5.3a.65.65,0,0,0,.6-.6V30.9c2.2,2.4,6.4,4.2,11.2,4.2a14.71,14.71,0,0,0,10.6-4.6A.47.47,0,0,0,147.3,29.8ZM72,21V20c0-1.4,2.6-2.5,6.1-2.5s4.6.8,4.6,1.7c0,.4-.4,1.2-2,1.4l-8,1.1A.68.68,0,0,1,72,21Zm15.2,5.7a.56.56,0,0,0-.9-.1c-1.7,1.5-3.7,2.6-7.6,2.6a10.51,10.51,0,0,1-5.8-1.6.6.6,0,0,1,.3-1.1l8.6-1.3c4.6-.6,7-2.4,7.4-5.4v9.9Zm43-5.7V20c0-1.4,2.6-2.5,6.1-2.5s4.6.8,4.6,1.7c0,.4-.4,1.2-2,1.4l-8,1.1A.68.68,0,0,1,130.2,21Z"/></g></g></g></symbol></defs><title>bmeme</title><g id="BG"><rect class="cls-2" width="623.62" height="255.12"/></g><g id="Logo"><use id="LOGO_COLOR" data-name="LOGO COLOR" width="147.5" height="35.2" transform="translate(22.62 58.55) scale(3.92)" xlink:href="#Nuovo_simbolo"/></g></svg>