<svg xmlns="http://www.w3.org/2000/svg" viewBox="0 0 315.97 285.11"><defs><style>.cls-1{fill:#fff;}.cls-2{fill:#eea924;}.cls-3{fill:#e36129;}.cls-4{fill:#de2743;}.cls-5{fill:#da2f87;}.cls-6{fill:#a64c93;}.cls-7{fill:#724d93;}.cls-8{fill:#568797;}.cls-9{fill:#59957f;}.cls-10{fill:#9cb55a;}.cls-11{fill:#525693;}.cls-12{fill:#333;}.cls-13{fill:#6fb167;}</style></defs><title>DatalyticsLogo</title><g id="Livello_2" data-name="Livello 2"><g id="Livello_1-2" data-name="Livello 1"><rect class="cls-1" x="0.17" y="281.76" width="17.52" height="3.35"/><rect class="cls-1" x="17.69" y="281.76" width="32.22" height="3.35"/><rect class="cls-1" x="49.89" y="281.76" width="33.9" height="3.35"/><rect class="cls-1" x="83.79" y="281.76" width="27.54" height="3.35"/><rect class="cls-1" x="111.33" y="281.76" width="24.64" height="3.35"/><rect class="cls-1" x="135.98" y="281.76" width="56.56" height="3.35"/><rect class="cls-1" x="176.84" y="281.76" width="39.36" height="3.35"/><rect class="cls-1" x="216.19" y="281.76" width="73.94" height="3.35"/><rect class="cls-1" x="244.12" y="281.76" width="71.84" height="3.35"/><rect class="cls-1" x="258.93" y="281.76" width="31.2" height="3.35"/><rect class="cls-1" x="164.25" y="281.76" width="28.28" height="3.35"/><rect class="cls-2" x="0.2" y="281.76" width="17.52" height="3.35"/><rect class="cls-3" x="17.72" y="281.76" width="32.22" height="3.35"/><rect class="cls-4" x="49.92" y="281.76" width="33.89" height="3.35"/><rect class="cls-5" x="83.81" y="281.76" width="27.54" height="3.35"/><rect class="cls-6" x="111.35" y="281.76" width="24.64" height="3.35"/><rect class="cls-7" x="136" y="281.76" width="28.25" height="3.35"/><rect class="cls-8" x="192.54" y="281.76" width="23.66" height="3.35"/><rect class="cls-9" x="216.2" y="281.76" width="27.43" height="3.35"/><rect class="cls-10" x="243.64" y="281.76" width="72.33" height="3.35"/><rect class="cls-11" x="164.27" y="281.76" width="28.27" height="3.35"/><path class="cls-12" d="M10.42,223.69a20.39,20.39,0,0,1,7.77,1.49,18.89,18.89,0,0,1,6.21,4,18.59,18.59,0,0,1,4.05,6,18.41,18.41,0,0,1,0,14.46,18.61,18.61,0,0,1-4.05,6,18.89,18.89,0,0,1-6.21,4,20.36,20.36,0,0,1-7.77,1.49H0V223.69ZM5.94,255.42h4.12q6.34,0,10.14-3.69a13.43,13.43,0,0,0,0-18.72q-3.8-3.69-10.14-3.69H5.94Z"/><path class="cls-12" d="M51.08,223.69Q57.85,240,66.69,261.06H60.29l-2.06-5-2.06-5H40.48c-.45,1.11-1.14,2.77-2.06,5l-2.07,4.95H30q12.07-29,15.62-37.37Zm-8.34,22H53.91l-5.58-13.47Z"/><path class="cls-12" d="M94.46,223.69v5.18H83v32.2H77.13v-32.2H65.64v-5.18Z"/><path class="cls-12" d="M114.54,223.69q6.77,16.27,15.61,37.37h-6.41l-2.06-5-2.06-5H103.94c-.45,1.11-1.14,2.77-2.06,5l-2.07,4.95H93.41q12.07-29,15.62-37.37Zm-8.34,22h11.17l-5.58-13.47Z"/><path class="cls-12" d="M139.95,223.69v31.95h18.94v5.43H134.11V223.69Z"/><path class="cls-12" d="M166.25,223.69l10.63,15.88,10.64-15.88h7.34l-15,22v15.39H174V245.67l-15.08-22Z"/><path class="cls-12" d="M226.93,223.69v5.18h-11.5v32.2H209.6v-32.2H198.1v-5.18Z"/><path class="cls-12" d="M239,223.69v37.37h-5.8V223.69Z"/><path class="cls-12" d="M272.86,225.71a17.36,17.36,0,0,1,6.83,6.81l1.39,2.55h-6.52l-.5-.78a11.54,11.54,0,0,0-1.5-1.84,14.39,14.39,0,0,0-18.59,0q-3.72,3.62-3.72,9.93T254,252.3a14.4,14.4,0,0,0,18.59,0,11.72,11.72,0,0,0,1.5-1.84c.12-.16.29-.43.5-.78h6.52l-1.39,2.55a17.35,17.35,0,0,1-6.83,6.81A20,20,0,0,1,256,260.1a18.48,18.48,0,0,1-6-3.85,17.89,17.89,0,0,1-4.06-6.06,21,21,0,0,1,0-15.64,17.87,17.87,0,0,1,4.06-6.06,18.48,18.48,0,0,1,6-3.85,20,20,0,0,1,16.88,1.06Z"/><path class="cls-12" d="M313.76,227.84l-2.9,4.89a16.05,16.05,0,0,0-5-2.82,16.73,16.73,0,0,0-6-1.08,8.38,8.38,0,0,0-5.3,1.6,5.27,5.27,0,0,0-1.48,2,3.55,3.55,0,0,0-.11,2.45,3.26,3.26,0,0,0,1.81,2,30.26,30.26,0,0,0,6.75,1.86,59.16,59.16,0,0,1,7.79,2,9.65,9.65,0,0,1,5.39,4.45,10,10,0,0,1,.84,7.11,11.06,11.06,0,0,1-2.06,4.41,10.48,10.48,0,0,1-3.67,3,18.89,18.89,0,0,1-8.48,1.81,26.41,26.41,0,0,1-15.94-5.28q.47-.88,1.43-2.64t1.43-2.64a20,20,0,0,0,13.15,4.82q7.3,0,8.38-4.72a4.14,4.14,0,0,0-.36-2.82,4.28,4.28,0,0,0-2.26-2,42.09,42.09,0,0,0-7-1.74,41,41,0,0,1-8.07-2.2q-5.73-2.37-5.3-8.79a9.91,9.91,0,0,1,3.83-7.45,13.56,13.56,0,0,1,8.7-2.8A22.11,22.11,0,0,1,313.76,227.84Z"/><polygon class="cls-1" points="315.34 0 243.79 17.01 243.79 17.13 243.79 87.11 215.98 89.55 164.25 92.36 164.25 133.04 170.92 143.83 136.09 173.72 111.57 149.42 84.08 149.42 50.37 122.55 18.29 149.42 0.32 149.42 0.32 152.38 18.29 152.38 50.37 152.38 84.08 171.71 111.57 178.56 136.09 178.56 192.41 178.56 192.41 145.98 215.98 156.8 289.61 110.15 289.61 83.09 289.61 68.94 315.34 50.81 315.34 0"/><rect class="cls-2" x="0.32" y="149.42" width="17.97" height="2.96"/><polygon class="cls-3" points="18.29 149.42 50.37 122.55 50.37 152.38 18.29 152.38 18.29 149.42"/><polygon class="cls-4" points="50.37 122.55 84.08 149.42 84.08 171.71 50.37 152.38 50.37 122.55"/><polygon class="cls-5" points="84.08 149.42 111.57 149.42 111.57 178.56 84.08 171.71 84.08 149.42"/><polygon class="cls-6" points="111.57 149.42 136.09 173.72 136.09 178.56 111.57 178.56 111.57 149.42"/><polygon class="cls-8" points="164.25 92.36 215.98 89.55 215.98 156.8 164.25 133.04 164.25 92.36"/><polygon class="cls-11" points="192.41 125.39 164.25 92.36 164.25 133.04 192.41 178.56 192.41 125.39"/><polygon class="cls-9" points="215.98 156.8 289.61 110.15 289.61 83.09 215.98 89.55 215.98 156.8"/><polygon class="cls-7" points="136.09 173.72 192.41 125.39 192.41 178.56 136.09 178.56 136.09 173.72"/><polygon class="cls-13" points="289.61 64.56 243.79 17.13 243.79 101.13 289.61 110.15 289.61 64.56"/><polygon class="cls-10" points="243.79 17.01 315.34 0 315.34 50.81 243.79 101.22 243.79 17.01"/></g></g></svg>