<?xml version="1.0" encoding="UTF-8" standalone="no"?>
<svg
   xmlns:dc="http://purl.org/dc/elements/1.1/"
   xmlns:cc="http://creativecommons.org/ns#"
   xmlns:rdf="http://www.w3.org/1999/02/22-rdf-syntax-ns#"
   xmlns:svg="http://www.w3.org/2000/svg"
   xmlns="http://www.w3.org/2000/svg"
   viewBox="0 0 279.05334 236.98666"
   height="236.98666"
   width="279.05334"
   xml:space="preserve"
   id="svg2"
   version="1.1"><metadata
     id="metadata8"><rdf:RDF><cc:Work
         rdf:about=""><dc:format>image/svg+xml</dc:format><dc:type
           rdf:resource="http://purl.org/dc/dcmitype/StillImage" /></cc:Work></rdf:RDF></metadata><defs
     id="defs6" /><g
     transform="matrix(1.3333333,0,0,-1.3333333,0,236.98667)"
     id="g10"><g
       transform="scale(0.1)"
       id="g12"><path
         id="path14"
         style="fill:#f0a525;fill-opacity:1;fill-rule:nonzero;stroke:none"
         d="m 1359.43,1288.73 c 0,-163.92 -132.86,-296.785 -296.78,-296.785 -163.908,0 -296.767,132.865 -296.767,296.785 0,163.92 132.859,296.78 296.767,296.78 163.92,0 296.78,-132.86 296.78,-296.78" /><path
         id="path16"
         style="fill:#aa6429;fill-opacity:1;fill-rule:nonzero;stroke:none"
         d="m 390.215,1404.25 c 0,0 2.449,43.29 18.781,50.63 16.34,7.34 57.969,-44.09 65.32,-55.52 7.348,-11.43 163.278,-239.23 163.278,-239.23 0,0 164.922,-236.767 287.402,-291.466 44.91,-26.121 97.984,-42.461 148.594,-40.012 50.62,2.453 156.75,27.75 277.59,168.203 120.84,140.435 299.64,411.485 299.64,411.485 0,0 42.47,56.34 65.32,40.84 17.97,-11.45 13.88,-94.73 11.43,-121.68 -2.46,-26.94 -4.09,-139.6 -93.09,-301.25 -88.98,-161.664 -304.5,-342.926 -603.34,-329.035 -298.843,13.871 -467.824,191.051 -556.015,340.435 -88.172,149.42 -84.91,366.6 -84.91,366.6" /><path
         id="path18"
         style="fill:#231f20;fill-opacity:1;fill-rule:nonzero;stroke:none"
         d="M 310.133,471.883 H 361.32 V 450.98 c 0,-4.449 3.114,-8.371 9.012,-8.371 4.969,0 9.922,2.621 9.922,8.891 v 7.84 c 0,23.512 -68.582,18.812 -68.582,66.633 0,20.379 5.59,47.828 61.43,47.828 23.289,0 58.332,-7.578 58.332,-38.93 v -14.379 h -51.18 v 14.379 c 0,6.512 -3.113,9.129 -8.383,9.129 -5.258,0 -9.008,-2.078 -9.008,-9.129 v -6.031 c 0,-9.399 18.641,-14.617 42.508,-26.129 25.133,-12.281 28.242,-24.559 28.242,-45.461 0,-33.98 -26.05,-44.437 -65.461,-44.437 -35.359,0 -58.019,9.667 -58.019,42.339" /><path
         id="path20"
         style="fill:#231f20;fill-opacity:1;fill-rule:nonzero;stroke:none"
         d="m 452.59,523.094 c 0,39.726 34.75,50.699 65.137,50.699 30.421,0 65.171,-10.973 65.171,-50.699 v -59.582 c 0,-39.731 -34.75,-50.692 -65.171,-50.692 -30.387,0 -65.137,10.961 -65.137,50.692 z m 55.25,-68.723 c 0,-5.238 3.078,-10.211 9.887,-10.211 6.839,0 9.953,4.973 9.953,10.211 v 81.012 c 0,5.23 -3.114,10.199 -9.953,10.199 -6.809,0 -9.887,-4.969 -9.887,-10.199" /><path
         id="path22"
         style="fill:#231f20;fill-opacity:1;fill-rule:nonzero;stroke:none"
         d="m 589.684,569.879 h 11.48 c 1.231,27.18 11.789,33.449 45.918,33.449 h 24.492 V 579.82 h -8.371 c -8.988,0 -16.121,-1.59 -17.359,-9.941 h 26.98 V 544.77 H 656.395 V 416.738 H 601.164 V 544.77 h -11.48" /><path
         id="path24"
         style="fill:#231f20;fill-opacity:1;fill-rule:nonzero;stroke:none"
         d="m 675.559,569.879 h 11.48 v 23.512 h 57.09 v -23.512 h 14.598 V 544.77 h -14.598 v -96.692 c 0,-4.43 1.859,-6.269 6.84,-6.269 h 7.758 v -25.071 h -30.418 c -37.223,0 -41.27,12.27 -41.27,36.051 v 91.981 h -11.48" /><path
         id="path26"
         style="fill:#231f20;fill-opacity:1;fill-rule:nonzero;stroke:none"
         d="M 813.352,569.879 823.59,459.078 h 0.629 l 13.961,110.801 h 47.468 l 14.59,-110.801 h 0.614 l 8.378,110.801 h 47.168 L 935.289,416.738 h -61.738 l -10.852,82.832 h -0.64 l -13.34,-82.832 H 785.75 l -23.578,153.141" /><path
         id="path28"
         style="fill:#231f20;fill-opacity:1;fill-rule:nonzero;stroke:none"
         d="m 1093.87,416.734 h -53.36 v 8.621 c -8.06,-7.058 -20.8,-12.539 -34.76,-12.539 -23.582,0 -36.004,13.321 -36.004,32.668 v 20.641 c 0,17.512 1.25,23.781 35.074,34.238 31.03,9.922 33.83,12.543 33.83,21.442 v 19.34 c 0,4.441 -3.11,9.128 -9.31,9.128 -6.2,0 -8.38,-4.449 -8.38,-9.128 v -30.321 h -51.214 v 16.192 c 0,33.718 19.25,46.781 60.844,46.781 39.09,0 63.28,-9.684 63.28,-45.211 z m -72.91,33.7 c 0,-4.43 3.12,-8.618 8.09,-8.618 6.8,0 9.6,4.45 9.6,7.829 v 40 c -11.49,-6.008 -17.69,-12.54 -17.69,-23.27" /><path
         id="path30"
         style="fill:#231f20;fill-opacity:1;fill-rule:nonzero;stroke:none"
         d="m 1116.34,569.879 h 53.37 v -19.602 h 0.6 c 5.3,14.633 21.73,22.461 34.15,23.524 v -55.672 c -3.09,0.269 -6.2,0.539 -9.31,0.539 -14.89,0 -23.59,-8.109 -23.59,-20.141 v -81.789 h -55.22" /><path
         id="path32"
         style="fill:#231f20;fill-opacity:1;fill-rule:nonzero;stroke:none"
         d="m 1219.05,523.094 c 0,39.726 34.76,50.699 65.17,50.699 26.67,0 61.42,-12.27 61.42,-50.699 v -32.133 h -71.37 v -39.988 c 0,-6.02 1.58,-9.942 8.38,-9.942 7.77,0 9.64,4.973 9.64,10.723 v 27.43 h 53.35 v -15.672 c 0,-39.731 -32.25,-50.692 -61.42,-50.692 -30.41,0 -65.17,10.961 -65.17,50.692 z m 55.22,-7.051 h 18.02 v 18.809 c 0,5.761 -1.87,10.73 -9.64,10.73 -6.8,0 -8.38,-3.93 -8.38,-9.949" /><path
         id="path34"
         style="fill:#aa6429;fill-opacity:1;fill-rule:nonzero;stroke:none"
         d="m 1369.61,569.879 h 55.22 V 455.16 c 0,-4.722 1.57,-10.992 8.7,-10.992 7.45,0 7.76,6.543 7.76,11.242 v 114.469 h 55.22 V 416.738 h -55.22 v 11.75 h -0.64 c -4.95,-9.918 -21.71,-15.668 -33.5,-15.668 -23.26,0 -37.54,12.809 -37.54,40.75" /><path
         id="path36"
         style="fill:#aa6429;fill-opacity:1;fill-rule:nonzero;stroke:none"
         d="m 1523.11,569.879 h 55.21 v -11.762 h 0.63 c 4.35,7.571 16.75,15.684 33.53,15.684 23.27,0 37.54,-12.821 37.54,-40.793 v -116.27 h -55.22 v 114.711 c 0,4.731 -1.57,11 -8.7,11 -7.44,0 -7.78,-6.539 -7.78,-11.238 V 416.738 h -55.21" /><path
         id="path38"
         style="fill:#aa6429;fill-opacity:1;fill-rule:nonzero;stroke:none"
         d="m 1668.29,523.094 c 0,39.726 34.75,50.699 65.15,50.699 30.41,0 65.16,-10.973 65.16,-50.699 v -59.582 c 0,-39.731 -34.75,-50.692 -65.16,-50.692 -30.4,0 -65.15,10.961 -65.15,50.692 z m 55.22,-68.723 c 0,-5.238 3.11,-10.211 9.93,-10.211 6.82,0 9.94,4.973 9.94,10.211 v 81.012 c 0,5.23 -3.12,10.199 -9.94,10.199 -6.82,0 -9.93,-4.969 -9.93,-10.199" /><path
         id="path40"
         style="fill:#231f20;fill-opacity:1;fill-rule:nonzero;stroke:none"
         d="M 318.93,335.633 V 241 h 60.59 v 11.191 h -47.758 v 83.442" /><path
         id="path42"
         style="fill:#231f20;fill-opacity:1;fill-rule:nonzero;stroke:none"
         d="m 426.66,322.27 h 11.8594 v 13.3398 H 426.66 Z m 0,-81.258 h 11.8594 v 68.5391 H 426.66 Z" /><path
         id="path44"
         style="fill:#231f20;fill-opacity:1;fill-rule:nonzero;stroke:none"
         d="m 456.762,241.012 v 68.551 h 10.73 v -9.672 c 2.571,3.75 5.731,6.562 9.481,8.422 3.718,1.871 8,2.8 12.832,2.8 3.769,0 7.25,-0.59 10.429,-1.769 3.188,-1.203 5.778,-2.742 7.739,-4.653 1.961,-1.91 3.402,-4.41 4.39,-7.449 0.95,-3.058 1.442,-7.762 1.442,-14.082 v -42.148 h -11.852 v 41.738 c 0,5.043 -0.539,8.742 -1.621,11.063 -1.078,2.339 -2.738,4.121 -5.039,5.39 -2.281,1.27 -4.93,1.918 -7.941,1.918 -5.707,0 -10.258,-1.719 -13.637,-5.121 -3.41,-3.406 -5.094,-9.238 -5.094,-17.52 v -37.468" /><path
         id="path46"
         style="fill:#231f20;fill-opacity:1;fill-rule:nonzero;stroke:none"
         d="m 539.469,241.012 v 59.519 h -10.582 v 9.032 h 10.582 v 7.3 c 0,5.36 0.711,9.399 2.097,12.098 1.403,2.691 3.563,4.762 6.434,6.152 2.879,1.418 6.508,2.149 10.887,2.149 3.41,0 7.101,-0.41 11.172,-1.219 l -1.789,-10.09 c -2.473,0.438 -4.832,0.66 -7.032,0.66 -3.55,0 -6.07,-0.761 -7.609,-2.23 -1.52,-1.492 -2.301,-4.34 -2.301,-8.5 v -6.32 h 13.711 v -9.032 h -13.711 v -59.519" /><path
         id="path48"
         style="fill:#231f20;fill-opacity:1;fill-rule:nonzero;stroke:none"
         d="m 570.051,275.301 c 0,11.828 3.09,20.738 9.328,26.789 6.199,6 14.059,9.008 23.59,9.008 9.351,0 17.191,-3.008 23.48,-9.008 6.27,-6.051 9.43,-14.723 9.43,-26.09 0,-12.312 -3.09,-21.473 -9.281,-27.5 -6.2,-6.02 -14.059,-9.031 -23.629,-9.031 -9.41,0 -17.27,3.011 -23.52,9.058 -6.269,6.051 -9.398,14.961 -9.398,26.774 m 12.168,0.019 c 0,-8.871 2.031,-15.48 6.051,-19.812 4.039,-4.34 9.039,-6.488 15.007,-6.488 5.582,0 10.391,2.179 14.403,6.558 4.019,4.391 6.031,10.949 6.031,19.742 0,8.848 -2.031,15.41 -6.082,19.75 -4.008,4.321 -9.039,6.508 -14.981,6.508 -5.66,0 -10.46,-2.211 -14.46,-6.539 -3.977,-4.359 -5.969,-10.922 -5.969,-19.719" /><path
         id="path50"
         style="fill:#231f20;fill-opacity:1;fill-rule:nonzero;stroke:none"
         d="m 653.746,241.012 v 68.551 h 10.731 v -10.379 c 2.738,4.796 5.257,8.007 7.539,9.566 2.3,1.582 4.851,2.363 7.718,2.363 3.961,0 8.032,-1.25 12.172,-3.75 l -4.039,-10.769 c -2.941,1.687 -5.832,2.519 -8.621,2.519 -2.531,0 -4.828,-0.722 -6.941,-2.133 -2.098,-1.429 -3.571,-3.41 -4.45,-5.929 -1.5,-4.43 -2.25,-9.16 -2.25,-14.129 v -35.91" /><path
         id="path52"
         style="fill:#231f20;fill-opacity:1;fill-rule:nonzero;stroke:none"
         d="m 702.227,241.012 v 68.551 h 10.652 v -9.551 c 2.379,3.551 5.387,6.289 9.109,8.211 3.7,1.929 7.739,2.89 12.149,2.89 4.949,0 9.109,-1.011 12.539,-3.07 3.402,-2 5.832,-4.992 7.269,-8.859 2.821,3.968 6.032,6.957 9.684,8.937 3.637,1.981 7.687,2.992 12.098,2.992 6.75,0 12.07,-1.82 15.961,-5.492 3.871,-3.648 5.828,-9.5 5.828,-17.558 v -47.051 h -11.879 v 43.23 c 0,4.891 -0.442,8.399 -1.321,10.43 -0.878,2.058 -2.347,3.629 -4.339,4.762 -2,1.117 -4.25,1.687 -6.731,1.687 -5.141,0 -9.328,-1.641 -12.59,-4.898 -3.23,-3.243 -4.847,-8.352 -4.847,-15.34 v -39.871 h -11.883 v 44.601 c 0,5.68 -1.071,9.68 -3.25,12 -2.18,2.328 -5.188,3.508 -9.008,3.508 -5.422,0 -9.699,-1.769 -12.859,-5.269 -3.161,-3.532 -4.731,-9.918 -4.731,-19.219 v -35.621" /><path
         id="path54"
         style="fill:#231f20;fill-opacity:1;fill-rule:nonzero;stroke:none"
         d="m 865.629,249.469 c -3.988,-3.301 -8.129,-5.801 -12.418,-7.489 -4.301,-1.671 -8.762,-2.523 -13.391,-2.523 -7.32,0 -13.148,1.762 -17.511,5.313 -4.36,3.531 -6.539,8.281 -6.539,14.25 0,3.98 1.031,7.468 3.062,10.539 2.059,3.039 4.848,5.441 8.398,7.148 3.551,1.723 8.911,2.981 16.141,3.813 9.668,1.14 16.777,2.488 21.277,4.078 l 0.102,2.961 c 0,4.671 -1.051,7.949 -3.16,9.871 -2.961,2.738 -7.488,4.14 -13.621,4.14 -5.559,0 -9.688,-0.941 -12.438,-2.769 -2.742,-1.844 -4.75,-5.293 -6.051,-10.344 l -11.679,1.551 c 1.64,7.34 5.019,12.73 10.121,16.062 5.09,3.379 12.34,5.047 21.816,5.047 7.371,0 13.153,-1.097 17.344,-3.328 4.207,-2.211 6.859,-4.949 7.949,-8.23 1.11,-3.282 1.641,-8.039 1.641,-14.329 v -15.511 c 0,-10.821 0.269,-17.649 0.789,-20.461 0.488,-2.828 1.519,-5.559 3.008,-8.238 h -12.41 c -1.25,2.359 -2.059,5.168 -2.43,8.449 m -0.981,25.969 c -4.328,-1.739 -10.816,-3.219 -19.418,-4.418 -5.019,-0.68 -8.5,-1.461 -10.511,-2.34 -1.981,-0.891 -3.52,-2.141 -4.629,-3.75 -1.102,-1.621 -1.66,-3.481 -1.66,-5.59 0,-3.25 1.269,-5.883 3.8,-7.832 2.52,-1.957 6.02,-2.938 10.481,-2.938 4.258,0 8.109,0.879 11.578,2.637 3.481,1.773 6.082,4.121 7.793,7.082 1.707,2.941 2.566,7.219 2.566,12.879" /><path
         id="path56"
         style="fill:#231f20;fill-opacity:1;fill-rule:nonzero;stroke:none"
         d="m 925.414,251.402 1.621,-10.25 c -3.289,-0.699 -6.25,-1.039 -8.871,-1.039 -4.141,0 -7.488,0.641 -10.019,1.961 -2.52,1.321 -4.25,3.11 -5.188,5.391 -0.953,2.277 -1.422,6.828 -1.422,13.637 v 39.429 h -8.711 v 9.032 h 8.711 v 16.98 l 11.86,6.961 v -23.941 h 12.019 v -9.032 h -12.019 v -40.09 c 0,-3.699 0.359,-6.097 1.05,-7.16 1.032,-1.558 2.942,-2.316 5.731,-2.316 1.347,0 3.09,0.148 5.238,0.437" /><path
         id="path58"
         style="fill:#231f20;fill-opacity:1;fill-rule:nonzero;stroke:none"
         d="m 938.441,322.27 h 11.8594 v 13.3398 H 938.441 Z m 0,-81.258 h 11.8594 v 68.5391 H 938.441 Z" /><path
         id="path60"
         style="fill:#231f20;fill-opacity:1;fill-rule:nonzero;stroke:none"
         d="m 1016.96,266.121 11.7,-1.492 c -1.34,-8.18 -4.72,-14.399 -10.13,-18.719 -5.42,-4.301 -11.9,-6.43 -19.475,-6.43 -9.203,0 -16.774,3.008 -22.723,9.059 -5.949,6.051 -8.918,14.981 -8.918,26.82 0,11.922 3.02,20.86 9.02,26.813 5.968,5.949 13.679,8.937 23.089,8.937 7.267,0 13.397,-1.808 18.367,-5.41 4.97,-3.621 8.15,-9.027 9.55,-16.258 l -11.53,-1.691 c -1.13,4.629 -3.09,8.078 -5.91,10.379 -2.79,2.281 -6.15,3.43 -10.059,3.43 -5.859,0 -10.726,-2.079 -14.578,-6.219 -3.84,-4.16 -5.75,-10.75 -5.75,-19.789 0,-9.332 1.84,-16.09 5.512,-20.281 3.699,-4.161 8.398,-6.239 14.148,-6.239 4.537,0 8.407,1.367 11.587,4.16 3.21,2.758 5.24,7.079 6.1,12.93" /><path
         id="path62"
         style="fill:#231f20;fill-opacity:1;fill-rule:nonzero;stroke:none"
         d="m 1087.7,249.469 c -3.99,-3.301 -8.13,-5.801 -12.41,-7.489 -4.31,-1.671 -8.77,-2.523 -13.4,-2.523 -7.32,0 -13.16,1.762 -17.51,5.313 -4.36,3.531 -6.54,8.281 -6.54,14.25 0,3.98 1.03,7.468 3.05,10.539 2.07,3.039 4.86,5.441 8.41,7.148 3.55,1.723 8.91,2.981 16.14,3.813 9.68,1.14 16.77,2.488 21.27,4.078 l 0.11,2.961 c 0,4.671 -1.05,7.949 -3.15,9.871 -2.97,2.738 -7.5,4.14 -13.63,4.14 -5.56,0 -9.69,-0.941 -12.44,-2.769 -2.74,-1.844 -4.75,-5.293 -6.05,-10.344 l -11.7,1.551 c 1.69,7.34 5.07,12.73 10.13,16.062 5.09,3.379 12.34,5.047 21.82,5.047 7.38,0 13.16,-1.097 17.34,-3.328 4.18,-2.211 6.87,-4.949 7.96,-8.23 1.11,-3.282 1.63,-8.039 1.63,-14.329 v -15.511 c 0,-10.821 0.29,-17.649 0.81,-20.461 0.48,-2.828 1.51,-5.559 3,-8.238 h -12.41 c -1.25,2.359 -2.06,5.168 -2.43,8.449 m -0.99,25.969 c -4.32,-1.739 -10.82,-3.219 -19.41,-4.418 -5.02,-0.68 -8.5,-1.461 -10.5,-2.34 -2,-0.891 -3.53,-2.141 -4.63,-3.75 -1.12,-1.621 -1.67,-3.481 -1.67,-5.59 0,-3.25 1.28,-5.883 3.8,-7.832 2.52,-1.957 6.02,-2.938 10.48,-2.938 4.26,0 8.11,0.879 11.58,2.637 3.48,1.773 6.08,4.121 7.8,7.082 1.7,2.941 2.55,7.219 2.55,12.879" /><path
         id="path64"
         style="fill:#231f20;fill-opacity:1;fill-rule:nonzero;stroke:none"
         d="m 1158.78,241.012 v 68.551 h 10.72 v -9.672 c 2.57,3.75 5.74,6.562 9.46,8.422 3.75,1.871 8.03,2.8 12.86,2.8 3.74,0 7.21,-0.59 10.43,-1.769 3.18,-1.203 5.75,-2.742 7.73,-4.653 1.96,-1.91 3.41,-4.41 4.39,-7.449 0.95,-3.058 1.44,-7.762 1.44,-14.082 v -42.148 h -11.84 v 41.738 c 0,5.043 -0.55,8.742 -1.63,11.063 -1.07,2.339 -2.76,4.121 -5.04,5.39 -2.28,1.27 -4.93,1.918 -7.96,1.918 -5.71,0 -10.24,-1.719 -13.64,-5.121 -3.38,-3.406 -5.07,-9.238 -5.07,-17.52 v -37.468" /><path
         id="path66"
         style="fill:#231f20;fill-opacity:1;fill-rule:nonzero;stroke:none"
         d="m 1287.95,263.082 12.27,-1.488 c -2.06,-7.301 -5.76,-12.813 -11.1,-16.531 -5.36,-3.731 -11.97,-5.583 -19.88,-5.583 -9.94,0 -18,3 -24.17,9.063 -6.17,6.039 -9.24,14.758 -9.24,26.168 0,11.84 3.12,20.852 9.31,27.07 6.22,6.219 14.08,9.332 23.61,9.332 9.08,0 16.68,-3.062 22.75,-9.16 6.07,-6.133 9.11,-14.961 9.11,-26.531 l -0.07,-3.102 h -52.43 c 0.46,-7.699 2.69,-13.5 6.68,-17.437 3.97,-3.903 8.81,-5.852 14.52,-5.852 8.94,0 15.13,4.68 18.64,14.051 m -39.14,18.789 h 39.21 c -0.54,5.949 -2.1,10.379 -4.75,13.301 -3.82,4.262 -8.69,6.391 -14.6,6.391 -5.33,0 -9.89,-1.762 -13.64,-5.352 -3.77,-3.52 -5.82,-8.32 -6.22,-14.34" /><path
         id="path68"
         style="fill:#231f20;fill-opacity:1;fill-rule:nonzero;stroke:none"
         d="m 1317.82,241.012 h 11.8594 v 94.6289 H 1317.82 Z" /><path
         id="path70"
         style="fill:#231f20;fill-opacity:1;fill-rule:nonzero;stroke:none"
         d="m 1384.35,261.539 11.86,1.82 c 0.71,-4.859 2.59,-8.449 5.73,-10.8 3.1,-2.36 7.22,-3.528 12.39,-3.528 5.13,0 9.13,1.008 11.95,3.059 2.82,2.031 4.2,4.629 4.2,7.789 0,2.703 -1.19,4.793 -3.61,6.32 -1.67,1.02 -5.7,2.321 -12.1,3.871 -9.26,2.27 -15.43,4.2 -18.56,5.801 -3.11,1.59 -5.54,3.731 -7.25,6.391 -1.75,2.668 -2.6,5.707 -2.6,9.109 0,5.828 2.35,10.609 7.03,14.25 4.68,3.649 11.16,5.488 19.45,5.488 5.21,0 9.79,-0.757 13.74,-2.277 3.96,-1.492 6.97,-3.523 9.08,-6.051 2.11,-2.543 3.55,-6.172 4.36,-10.922 l -11.61,-1.539 c -1.08,7.489 -6.18,11.239 -15.27,11.239 -5.16,0 -9,-0.829 -11.52,-2.469 -2.52,-1.641 -3.79,-3.75 -3.79,-6.352 0,-2.519 1.22,-4.5 3.63,-5.976 1.45,-0.84 5.77,-2.223 12.93,-4.114 9.84,-2.5 16.25,-4.476 19.14,-5.968 2.89,-1.5 5.15,-3.5 6.74,-6.078 1.61,-2.571 2.42,-5.602 2.42,-9.161 0,-6.531 -2.6,-11.851 -7.8,-15.89 -5.18,-4.071 -12.26,-6.071 -21.25,-6.071 -16.85,0 -26.59,7.34 -29.29,22.059" /><path
         id="path72"
         style="fill:#231f20;fill-opacity:1;fill-rule:nonzero;stroke:none"
         d="m 1457.28,275.301 c 0,11.828 3.11,20.738 9.33,26.789 6.19,6 14.06,9.008 23.58,9.008 9.36,0 17.2,-3.008 23.49,-9.008 6.3,-6.051 9.43,-14.723 9.43,-26.09 0,-12.312 -3.09,-21.473 -9.29,-27.5 -6.18,-6.02 -14.05,-9.031 -23.63,-9.031 -9.42,0 -17.24,3.011 -23.51,9.058 -6.27,6.051 -9.4,14.961 -9.4,26.774 m 12.17,0.019 c 0,-8.871 2.03,-15.48 6.05,-19.812 4.04,-4.34 9.04,-6.488 15.01,-6.488 5.61,0 10.41,2.179 14.41,6.558 4.01,4.391 6.01,10.949 6.01,19.742 0,8.848 -2.04,15.41 -6.06,19.75 -4.03,4.321 -9.02,6.508 -14.99,6.508 -5.67,0 -10.46,-2.211 -14.46,-6.539 -3.96,-4.359 -5.97,-10.922 -5.97,-19.719" /><path
         id="path74"
         style="fill:#231f20;fill-opacity:1;fill-rule:nonzero;stroke:none"
         d="m 1587.28,266.121 11.7,-1.492 c -1.34,-8.18 -4.72,-14.399 -10.14,-18.719 -5.41,-4.301 -11.89,-6.43 -19.46,-6.43 -9.21,0 -16.78,3.008 -22.74,9.059 -5.94,6.051 -8.91,14.981 -8.91,26.82 0,11.922 2.98,20.86 8.98,26.813 6,5.949 13.72,8.937 23.13,8.937 7.27,0 13.39,-1.808 18.35,-5.41 4.99,-3.621 8.17,-9.027 9.57,-16.258 l -11.53,-1.691 c -1.13,4.629 -3.09,8.078 -5.88,10.379 -2.82,2.281 -6.18,3.43 -10.09,3.43 -5.88,0 -10.72,-2.079 -14.57,-6.219 -3.85,-4.16 -5.76,-10.75 -5.76,-19.789 0,-9.332 1.84,-16.09 5.51,-20.281 3.7,-4.161 8.4,-6.239 14.15,-6.239 4.54,0 8.37,1.367 11.59,4.16 3.21,2.758 5.24,7.079 6.1,12.93" /><path
         id="path76"
         style="fill:#231f20;fill-opacity:1;fill-rule:nonzero;stroke:none"
         d="m 1608.48,322.27 h 11.8594 v 13.3398 H 1608.48 Z m 0,-81.258 h 11.8594 v 68.5391 H 1608.48 Z" /><path
         id="path78"
         style="fill:#231f20;fill-opacity:1;fill-rule:nonzero;stroke:none"
         d="m 1688.05,249.469 c -3.97,-3.301 -8.13,-5.801 -12.42,-7.489 -4.31,-1.671 -8.77,-2.523 -13.4,-2.523 -7.31,0 -13.14,1.762 -17.51,5.313 -4.36,3.531 -6.53,8.281 -6.53,14.25 0,3.98 1.02,7.468 3.05,10.539 2.06,3.039 4.86,5.441 8.4,7.148 3.56,1.723 8.92,2.981 16.14,3.813 9.68,1.14 16.78,2.488 21.31,4.078 l 0.07,2.961 c 0,4.671 -1.05,7.949 -3.15,9.871 -2.97,2.738 -7.5,4.14 -13.63,4.14 -5.55,0 -9.69,-0.941 -12.44,-2.769 -2.73,-1.844 -4.74,-5.293 -6.04,-10.344 l -11.71,1.551 c 1.69,7.34 5.05,12.73 10.15,16.062 5.08,3.379 12.33,5.047 21.81,5.047 7.37,0 13.16,-1.097 17.36,-3.328 4.16,-2.211 6.84,-4.949 7.94,-8.23 1.1,-3.282 1.64,-8.039 1.64,-14.329 v -15.511 c 0,-10.821 0.27,-17.649 0.79,-20.461 0.51,-2.828 1.49,-5.559 3,-8.238 h -12.41 c -1.25,2.359 -2.06,5.168 -2.42,8.449 m -0.96,25.969 c -4.36,-1.739 -10.85,-3.219 -19.44,-4.418 -5.03,-0.68 -8.51,-1.461 -10.51,-2.34 -1.98,-0.891 -3.52,-2.141 -4.63,-3.75 -1.1,-1.621 -1.67,-3.481 -1.67,-5.59 0,-3.25 1.28,-5.883 3.8,-7.832 2.52,-1.957 6.03,-2.938 10.51,-2.938 4.24,0 8.08,0.879 11.55,2.637 3.49,1.773 6.08,4.121 7.8,7.082 1.71,2.941 2.59,7.219 2.59,12.879" /><path
         id="path80"
         style="fill:#231f20;fill-opacity:1;fill-rule:nonzero;stroke:none"
         d="m 1721.57,241.012 h 11.8594 v 94.6289 H 1721.57 Z" /><path
         id="path82"
         style="fill:#231f20;fill-opacity:1;fill-rule:nonzero;stroke:none"
         d="m 1801.7,263.082 12.28,-1.488 c -2.07,-7.301 -5.76,-12.813 -11.1,-16.531 -5.36,-3.731 -11.98,-5.583 -19.89,-5.583 -9.94,0 -18,3 -24.17,9.063 -6.17,6.039 -9.23,14.758 -9.23,26.168 0,11.84 3.11,20.852 9.31,27.07 6.22,6.219 14.08,9.332 23.6,9.332 9.09,0 16.68,-3.062 22.75,-9.16 6.08,-6.133 9.12,-14.961 9.12,-26.531 l -0.08,-3.102 h -52.43 c 0.48,-7.699 2.69,-13.5 6.69,-17.437 3.96,-3.903 8.81,-5.852 14.52,-5.852 8.93,0 15.13,4.68 18.63,14.051 m -39.13,18.789 h 39.21 c -0.52,5.949 -2.11,10.379 -4.76,13.301 -3.82,4.262 -8.69,6.391 -14.59,6.391 -5.34,0 -9.89,-1.762 -13.64,-5.352 -3.77,-3.52 -5.85,-8.32 -6.22,-14.34" /><path
         id="path84"
         style="fill:#231f20;fill-opacity:1;fill-rule:nonzero;stroke:none"
         d="m 395.742,335.633 v -19.391 l 2.653,-14.41 h 7.757 l 2.571,14.41 v 19.391" /></g></g></svg>