<?xml version="1.0" encoding="utf-8"?>
<!-- Generator: Adobe Illustrator 21.1.0, SVG Export Plug-In . SVG Version: 6.00 Build 0)  -->
<svg version="1.1" id="Livello_1" xmlns="http://www.w3.org/2000/svg" xmlns:xlink="http://www.w3.org/1999/xlink" x="0px" y="0px"
	 viewBox="0 0 624.8 271.4" style="enable-background:new 0 0 624.8 271.4;" xml:space="preserve">
<style type="text/css">
	.st0{fill:#F15A22;}
</style>
<g>
	<g>
		<polygon points="228,40.2 225.4,56 213.4,56 216.4,40.2 		"/>
		<polygon points="603,77.3 588.1,77.3 549.5,120.9 527.4,77.3 514.8,77.3 540.5,128.7 498.6,178.2 513.4,178.2 547.6,138.3 
			568.8,178.2 581.5,178.2 556.6,130.3 		"/>
		<path d="M505.3,104.5c-0.3-15.9-14.2-28.9-31-28.9h-4.8c-8.1,0-16.3,2.7-23.3,7.6c-7.3,5.1-12.8,11.9-15.5,19.3
			c-4.6,12.7-8.4,34.3-8.4,48.3c0.6,16.3,14.3,29.1,31.3,29.1h4.9c7.8,0,16.1-2.8,23.3-7.9c7.3-5.1,12.7-12,15.5-19.2
			C501.9,139.8,505.6,118.1,505.3,104.5z M486.2,148.7c-3.9,10.3-16.9,19.4-27.9,19.4h-4.9c-10.6,0-19.5-7.8-19.7-17.3
			c0-12.2,3.5-32.4,7.7-44.2c3.9-10.4,16.7-19.1,27.9-19.1h4.8c10.5,0,19.5,7.8,19.5,17.1C494,116.3,490.5,136.6,486.2,148.7z"/>
		<path d="M310,108.7l-12,69.5h-11.9l12.4-71.6c1-4.9,0-9-3-12.5c-3.3-4.1-9.2-6.8-15.1-6.8H279c-9.9,0-24.9,7.4-27.3,21.3l-12,69.6
			h-11.9l12.9-73.5c0.5-3,3.2-13.3,14.5-21c7.4-5.2,16.1-8.2,23.9-8.2h1.4c9.4,0,18.4,4.2,24,11.1C309.4,92.6,311.4,100.5,310,108.7
			z"/>
		<polygon points="221.6,77.3 203.6,178.2 191.9,178.2 209.7,77.3 		"/>
		<path d="M154.4,75.6h-4.9c-8,0-16.7,2.8-23.8,7.8c0,0-13.3,8.7-16.1,20.9l-8.3,46.8l-12.1,67.6h11.7l8.6-48.2
			c6.1,6.1,14.6,9.5,23.5,9.5h5.1c7.7,0,16.4-2.8,23.8-7.7c7.7-5.6,13.1-12.3,15.7-19.3c4.9-13.4,8.7-35.2,8.4-48.6
			C185.9,88.5,171.6,75.6,154.4,75.6z M138.2,168.5h-5.1c-10.9,0-19.9-7.8-20.2-17.4l8-44.7c2-9.9,17.1-19.2,28.6-19.2h4.9
			c10.9,0,20,7.9,20.2,17.5c0.2,12.2-3.3,32.5-7.8,44.3C162.9,159.5,149.8,168.5,138.2,168.5z"/>
		<path class="st0" d="M420.8,34.5h-61.1c-0.5,0-1,0.1-1.5,0.2l-1.8,10c0.1,0.1,0.2,0.2,0.3,0.2c17.9,10.7,29.9,22.4,35.7,34.8
			c-5-2.9-10.8-4.4-16.7-4.4h-5.1c-7.8,0-16.4,2.8-23.9,7.8c-7.7,5.6-13.1,12.3-15.7,19.3c-4.9,13.4-8.7,35.2-8.4,48.6
			c0.3,15.9,14.6,28.8,31.8,28.8h4.9c8,0,16.7-2.8,23.8-7.7c1.5-1,3.5-2.4,5.2-4.1c5.8-5.2,7-7.6,10.5-14.6l0.3-0.6
			c5-13.5,8.8-37.2,8.7-54.1c0-0.9,0-1.9,0-2.7c0-0.1,0-0.2,0-0.4c-0.9-18.2-11-34.9-29.9-49.7h40.8L420.8,34.5z M388.3,148.8
			c-4.1,10.6-17.4,19.5-28.9,19.5h-4.9c-10.9,0-20-7.9-20.2-17.5c-0.3-12.2,3.3-32.5,7.7-44.3c3.9-10.6,17-19.5,28.7-19.5h5.1
			c10.9,0,20,7.9,20.3,17.5C396.4,116.2,392.8,136.5,388.3,148.8z"/>
		<path d="M91.1,99.3v-1.1c0-12.3-11-22.7-24-22.7c-8.7,0-15.4,1.2-22.3,7.5c-5.2,4.5-9.4,11.6-9.7,19.1c0,27.3,37.2,29.7,37.2,46.9
			c-0.3,3.8-2.2,8.1-5.2,11.2c-5,5.1-10.9,7.7-17.6,7.7c-12.9,0-15.5-7.7-16-12.2l-0.1-1L21.8,155l0.1,1.2c0.3,2.3,1,9.4,6,15
			c5.2,5.7,12.5,8.6,21.6,8.6c9.5,0,18.5-3.8,25.9-11.1c5.3-5.4,8.2-12.8,8.5-19.6c0-28.7-37.2-25.7-37.2-46.9
			c0.3-4.1,3.2-8.1,5.7-10.2c3.8-3.3,7.3-4.4,14.7-4.4c6.7,0,12.4,5.1,12.4,11.1v1.1L91.1,99.3z"/>
	</g>
	<g>
		<path d="M160.9,233.1c-2.6,2.3-6.1,3.4-9.8,3.4h-12.5l6.2-35.6h12.5c3.7,0,6.8,1.1,8.6,3.4c3.2,3.9,2,9.1,1.1,14.2
			C166.2,223.6,165.5,229.3,160.9,233.1z M161.6,208.1c-1.2-1.7-3.1-2.4-5.6-2.4h-6.6l-4.5,25.9h6.6c2.6,0,4.7-0.8,6.5-2.4
			c2.2-2.1,2.9-5.9,3.8-10.8C162.6,213.5,163.1,210.2,161.6,208.1z"/>
		<path d="M185.8,236.5l6.2-35.6h5.4l-6.2,35.6H185.8z"/>
		<path d="M236.4,232.7c-3.2,2.9-6.8,4.1-10.5,4.1c-3.7,0-6.7-1.4-8.7-3.8c-2.9-3.5-2.1-7.5-1-14.3c1.2-6.9,1.8-10.8,6-14.3
			c2.9-2.5,6.2-3.8,10-3.8c7.6,0,11.1,5,11,11.1h-5.5c-0.2-3.9-2.4-6.2-6.4-6.2c-2.1,0-4.2,0.9-5.6,2.2c-2.1,1.9-2.8,3.9-4.1,11.1
			s-1.2,9.2,0.2,11.1c1,1.4,2.8,2.2,4.9,2.2c2.4,0,4.6-0.9,6.2-2.5c1.6-1.5,2.4-3.3,2.8-5.6l0.3-2h-7.6l0.8-4.6h13l-1,5.5
			C240.5,227.3,239.1,230.2,236.4,232.7z"/>
		<path d="M260.7,236.5l6.2-35.6h5.4l-6.2,35.6H260.7z"/>
		<path d="M306.7,205.7l-5.4,30.8h-5.4l5.4-30.8h-9.8l0.8-4.9h25l-0.8,4.9H306.7z"/>
		<path d="M348.6,236.5l-1.2-7.2h-14.1l-3.7,7.2h-5.8l19.3-35.6h4.4l6.8,35.6H348.6z M344.1,208.9l-8.3,15.8h11L344.1,208.9z"/>
		<path d="M373.3,236.5l6.2-35.6h5.4l-5.4,30.8h17.2l-0.8,4.9H373.3z"/>
		<path d="M493.8,233c-2.9,2.5-6.3,3.8-10.1,3.8c-3.8,0-6.7-1.4-8.7-3.8c-2.9-3.5-2.1-7.5-1-14.3c1.2-6.9,1.8-10.8,6-14.3
			c2.9-2.5,6.2-3.8,10-3.8c3.8,0,6.7,1.4,8.7,3.8c2.9,3.5,2.1,7.5,0.9,14.3C498.5,225.5,497.9,229.5,493.8,233z M494.1,207.6
			c-1-1.4-2.8-2.2-4.9-2.2c-2.1,0-4.2,0.9-5.7,2.2c-2.1,1.9-2.8,3.9-4,11.1c-1.2,7.2-1.2,9.2,0.2,11.1c1,1.4,2.8,2.2,4.9,2.2
			s4.2-0.9,5.7-2.2c2.1-1.9,2.8-3.9,4-11.1C495.6,211.5,495.6,209.5,494.1,207.6z"/>
		<path d="M530.6,236.8c-7.3,0-11.9-5-10.6-12.3l4.1-23.6h5.4l-4.1,23.4c-0.8,4.8,1.6,7.7,6,7.7c4.5,0,7.9-3,8.7-7.7l4.1-23.4h5.4
			l-4.1,23.6C544.3,231.8,537.9,236.8,530.6,236.8z"/>
		<path d="M566.1,236.5l6.2-35.6h5.4l-5.4,30.8h17.2l-0.8,4.9H566.1z"/>
		<path d="M456.9,209.3v-0.8c0-4.5-4.1-8.3-8.9-8.3c-3.2,0-5.6,0.4-8.2,2.7c-2.1,1.8-3.5,4.4-3.6,6.9c0,5.5,4.2,8.2,7.9,10.5
			c2.8,1.8,5.2,3.3,5.2,5.6c-0.1,1.3-0.8,2.6-1.7,3.5c-1.7,1.7-3.6,2.5-5.8,2.5c-3.9,0-5-2.1-5.1-3.7l0-0.8l-5.1,0.1l0,0.5l0,0.5
			c0.1,0.8,0.4,3.4,2.2,5.4c1.9,2.1,4.6,3.1,8,3.1c3.5,0,6.7-1.4,9.4-4c1.9-1.9,3-4.5,3.1-7.1c0-5.6-4-7.9-7.5-9.9
			c-3-1.7-5.6-3.2-5.6-6.2c0.1-1.2,1-2.5,1.8-3.2c1.2-1.1,2.4-1.4,4.8-1.4c2.1,0,3.9,1.5,3.9,3.3v0.9L456.9,209.3z"/>
	</g>
</g>
</svg>
